<svg width="20" height="20" viewBox="0 0 20 20" fill="none" xmlns="http://www.w3.org/2000/svg">
<path d="M2.5 15.7275V18.1821L3.31819 19.0003H17.2274L18.0455 18.1821V15.7275" stroke="#ADADAD" stroke-linejoin="bevel"/>
<path d="M14.3637 1.00004L14.7173 0.646491L14.5708 0.500044H14.3637V1.00004ZM18.0455 4.68188H18.5455V4.47478L18.3991 4.32833L18.0455 4.68188ZM3.31819 1.00004L3.31787 0.500044L3.31819 1.00004ZM3.72728 1.00004L3.72708 1.50004H3.72728V1.00004ZM14.0101 1.3536L17.692 5.03544L18.3991 4.32833L14.7173 0.646491L14.0101 1.3536ZM17.5455 4.68188V7.13644H18.5455V4.68188H17.5455ZM3 1.81823C3 1.77588 3.02606 1.69216 3.10893 1.60924C3.19173 1.52638 3.27554 1.50007 3.3185 1.50004L3.31787 0.500044C2.95059 0.500274 2.62532 0.678487 2.40158 0.902375C2.17791 1.1262 2 1.45144 2 1.81823H3ZM3 7.13644V2.22732H2V7.13644H3ZM2.5 2.22732C3 2.22732 3 2.22732 3 2.22732C3 2.22732 3 2.22732 3 2.22731C3 2.22731 3 2.2273 3 2.2273C3 2.22729 3 2.22729 3 2.22728C3 2.22727 3 2.22726 3 2.22725C3 2.22724 3 2.22723 3 2.22722C3 2.22721 3 2.2272 3 2.22718C3 2.22717 3 2.22716 3 2.22714C3 2.22713 3 2.22711 3 2.22709C3 2.22708 3 2.22706 3 2.22704C3 2.22702 3 2.227 3 2.22698C3 2.22696 3 2.22694 3 2.22692C3 2.22689 3 2.22687 3 2.22685C3 2.22682 3 2.2268 3 2.22677C3 2.22675 3 2.22672 3 2.22669C3 2.22666 3 2.22663 3 2.2266C3 2.22657 3 2.22654 3 2.22651C3 2.22648 3 2.22645 3 2.22641C3 2.22638 3 2.22635 3 2.22631C3 2.22628 3 2.22624 3 2.2262C3 2.22617 3 2.22613 3 2.22609C3 2.22605 3 2.22601 3 2.22597C3 2.22593 3 2.22589 3 2.22585C3 2.2258 3 2.22576 3 2.22572C3 2.22567 3 2.22563 3 2.22558C3 2.22553 3 2.22549 3 2.22544C3 2.22539 3 2.22534 3 2.22529C3 2.22524 3 2.22519 3 2.22514C3 2.22509 3 2.22504 3 2.22499C3 2.22493 3 2.22488 3 2.22482C3 2.22477 3 2.22471 3 2.22466C3 2.2246 3 2.22454 3 2.22448C3 2.22443 3 2.22437 3 2.22431C3 2.22425 3 2.22419 3 2.22412C3 2.22406 3 2.224 3 2.22394C3 2.22387 3 2.22381 3 2.22374C3 2.22368 3 2.22361 3 2.22355C3 2.22348 3 2.22341 3 2.22334C3 2.22327 3 2.2232 3 2.22313C3 2.22306 3 2.22299 3 2.22292C3 2.22285 3 2.22278 3 2.2227C3 2.22263 3 2.22255 3 2.22248C3 2.2224 3 2.22233 3 2.22225C3 2.22217 3 2.22209 3 2.22201C3 2.22194 3 2.22186 3 2.22178C3 2.2217 3 2.22161 3 2.22153C3 2.22145 3 2.22137 3 2.22128C3 2.2212 3 2.22111 3 2.22103C3 2.22094 3 2.22086 3 2.22077C3 2.22068 3 2.22059 3 2.22051C3 2.22042 3 2.22033 3 2.22024C3 2.22015 3 2.22006 3 2.21996C3 2.21987 3 2.21978 3 2.21968C3 2.21959 3 2.2195 3 2.2194C3 2.21931 3 2.21921 3 2.21911C3 2.21902 3 2.21892 3 2.21882C3 2.21872 3 2.21862 3 2.21852C3 2.21842 3 2.21832 3 2.21822C3 2.21812 3 2.21801 3 2.21791C3 2.21781 3 2.2177 3 2.2176C3 2.21749 3 2.21739 3 2.21728C3 2.21717 3 2.21707 3 2.21696C3 2.21685 3 2.21674 3 2.21663C3 2.21652 3 2.21641 3 2.2163C3 2.21619 3 2.21607 3 2.21596C3 2.21585 3 2.21574 3 2.21562C3 2.21551 3 2.21539 3 2.21527C3 2.21516 3 2.21504 3 2.21492C3 2.21481 3 2.21469 3 2.21457C3 2.21445 3 2.21433 3 2.21421C3 2.21409 3 2.21397 3 2.21384C3 2.21372 3 2.2136 3 2.21347C3 2.21335 3 2.21323 3 2.2131C3 2.21298 3 2.21285 3 2.21272C3 2.2126 3 2.21247 3 2.21234C3 2.21221 3 2.21208 3 2.21195C3 2.21182 3 2.21169 3 2.21156C3 2.21143 3 2.2113 3 2.21116C3 2.21103 3 2.2109 3 2.21076C3 2.21063 3 2.21049 3 2.21036C3 2.21022 3 2.21008 3 2.20994C3 2.20981 3 2.20967 3 2.20953C3 2.20939 3 2.20925 3 2.20911C3 2.20897 3 2.20883 3 2.20869C3 2.20855 3 2.2084 3 2.20826C3 2.20812 3 2.20797 3 2.20783C3 2.20768 3 2.20754 3 2.20739C3 2.20724 3 2.2071 3 2.20695C3 2.2068 3 2.20665 3 2.2065C3 2.20635 3 2.2062 3 2.20605C3 2.2059 3 2.20575 3 2.2056C3 2.20545 3 2.20529 3 2.20514C3 2.20499 3 2.20483 3 2.20468C3 2.20452 3 2.20437 3 2.20421C3 2.20405 3 2.20389 3 2.20374C3 2.20358 3 2.20342 3 2.20326C3 2.2031 3 2.20294 3 2.20278C3 2.20262 3 2.20246 3 2.2023C3 2.20213 3 2.20197 3 2.20181C3 2.20164 3 2.20148 3 2.20132C3 2.20115 3 2.20098 3 2.20082C3 2.20065 3 2.20048 3 2.20032C3 2.20015 3 2.19998 3 2.19981C3 2.19964 3 2.19947 3 2.1993C3 2.19913 3 2.19896 3 2.19879C3 2.19862 3 2.19844 3 2.19827C3 2.1981 3 2.19792 3 2.19775C3 2.19757 3 2.1974 3 2.19722C3 2.19705 3 2.19687 3 2.19669C3 2.19652 3 2.19634 3 2.19616C3 2.19598 3 2.1958 3 2.19562C3 2.19544 3 2.19526 3 2.19508C3 2.1949 3 2.19472 3 2.19453C3 2.19435 3 2.19417 3 2.19398C3 2.1938 3 2.19361 3 2.19343C3 2.19324 3 2.19306 3 2.19287C3 2.19268 3 2.1925 3 2.19231C3 2.19212 3 2.19193 3 2.19174C3 2.19155 3 2.19136 3 2.19117C3 2.19098 3 2.19079 3 2.1906C3 2.19041 3 2.19021 3 2.19002C3 2.18983 3 2.18963 3 2.18944C3 2.18924 3 2.18905 3 2.18885C3 2.18866 3 2.18846 3 2.18826C3 2.18807 3 2.18787 3 2.18767C3 2.18747 3 2.18727 3 2.18707C3 2.18688 3 2.18667 3 2.18647C3 2.18627 3 2.18607 3 2.18587C3 2.18567 3 2.18546 3 2.18526C3 2.18506 3 2.18485 3 2.18465C3 2.18444 3 2.18424 3 2.18403C3 2.18383 3 2.18362 3 2.18341C3 2.18321 3 2.183 3 2.18279C3 2.18258 3 2.18237 3 2.18216C3 2.18195 3 2.18174 3 2.18153C3 2.18132 3 2.18111 3 2.1809C3 2.18069 3 2.18047 3 2.18026C3 2.18005 3 2.17983 3 2.17962C3 2.17941 3 2.17919 3 2.17897C3 2.17876 3 2.17854 3 2.17833C3 2.17811 3 2.17789 3 2.17767C3 2.17746 3 2.17724 3 2.17702C3 2.1768 3 2.17658 3 2.17636C3 2.17614 3 2.17592 3 2.1757C3 2.17547 3 2.17525 3 2.17503C3 2.17481 3 2.17458 3 2.17436C3 2.17414 3 2.17391 3 2.17369C3 2.17346 3 2.17324 3 2.17301C3 2.17278 3 2.17256 3 2.17233C3 2.1721 3 2.17187 3 2.17164C3 2.17142 3 2.17119 3 2.17096C3 2.17073 3 2.1705 3 2.17027C3 2.17004 3 2.1698 3 2.16957C3 2.16934 3 2.16911 3 2.16888C3 2.16864 3 2.16841 3 2.16817C3 2.16794 3 2.16771 3 2.16747C3 2.16723 3 2.167 3 2.16676C3 2.16653 3 2.16629 3 2.16605C3 2.16581 3 2.16558 3 2.16534C3 2.1651 3 2.16486 3 2.16462C3 2.16438 3 2.16414 3 2.1639C3 2.16366 3 2.16342 3 2.16317C3 2.16293 3 2.16269 3 2.16245C3 2.1622 3 2.16196 3 2.16172C3 2.16147 3 2.16123 3 2.16098C3 2.16074 3 2.16049 3 2.16025C3 2.16 3 2.15975 3 2.15951C3 2.15926 3 2.15901 3 2.15876C3 2.15851 3 2.15827 3 2.15802C3 2.15777 3 2.15752 3 2.15727C3 2.15702 3 2.15677 3 2.15651C3 2.15626 3 2.15601 3 2.15576C3 2.15551 3 2.15525 3 2.155C3 2.15475 3 2.15449 3 2.15424C3 2.15398 3 2.15373 3 2.15347C3 2.15322 3 2.15296 3 2.1527C3 2.15245 3 2.15219 3 2.15193C3 2.15167 3 2.15142 3 2.15116C3 2.1509 3 2.15064 3 2.15038C3 2.15012 3 2.14986 3 2.1496C3 2.14934 3 2.14908 3 2.14882C3 2.14856 3 2.14829 3 2.14803C3 2.14777 3 2.14751 3 2.14724C3 2.14698 3 2.14671 3 2.14645C3 2.14618 3 2.14592 3 2.14565C3 2.14539 3 2.14512 3 2.14486C3 2.14459 3 2.14432 3 2.14406C3 2.14379 3 2.14352 3 2.14325C3 2.14298 3 2.14271 3 2.14245C3 2.14218 3 2.14191 3 2.14164C3 2.14137 3 2.14109 3 2.14082C3 2.14055 3 2.14028 3 2.14001C3 2.13974 3 2.13946 3 2.13919C3 2.13892 3 2.13864 3 2.13837C3 2.1381 3 2.13782 3 2.13755C3 2.13727 3 2.137 3 2.13672C3 2.13644 3 2.13617 3 2.13589C3 2.13562 3 2.13534 3 2.13506C3 2.13478 3 2.1345 3 2.13423C3 2.13395 3 2.13367 3 2.13339C3 2.13311 3 2.13283 3 2.13255C3 2.13227 3 2.13199 3 2.13171C3 2.13143 3 2.13114 3 2.13086C3 2.13058 3 2.1303 3 2.13001C3 2.12973 3 2.12945 3 2.12916C3 2.12888 3 2.1286 3 2.12831C3 2.12803 3 2.12774 3 2.12746C3 2.12717 3 2.12688 3 2.1266C3 2.12631 3 2.12602 3 2.12574C3 2.12545 3 2.12516 3 2.12487C3 2.12459 3 2.1243 3 2.12401C3 2.12372 3 2.12343 3 2.12314C3 2.12285 3 2.12256 3 2.12227C3 2.12198 3 2.12169 3 2.1214C3 2.12111 3 2.12081 3 2.12052C3 2.12023 3 2.11994 3 2.11964C3 2.11935 3 2.11906 3 2.11876C3 2.11847 3 2.11817 3 2.11788C3 2.11758 3 2.11729 3 2.11699C3 2.1167 3 2.1164 3 2.11611C3 2.11581 3 2.11551 3 2.11522C3 2.11492 3 2.11462 3 2.11432C3 2.11403 3 2.11373 3 2.11343C3 2.11313 3 2.11283 3 2.11253C3 2.11223 3 2.11193 3 2.11163C3 2.11133 3 2.11103 3 2.11073C3 2.11043 3 2.11013 3 2.10983C3 2.10953 3 2.10922 3 2.10892C3 2.10862 3 2.10832 3 2.10801C3 2.10771 3 2.10741 3 2.1071C3 2.1068 3 2.10649 3 2.10619C3 2.10588 3 2.10558 3 2.10527C3 2.10497 3 2.10466 3 2.10436C3 2.10405 3 2.10374 3 2.10344C3 2.10313 3 2.10282 3 2.10252C3 2.10221 3 2.1019 3 2.10159C3 2.10128 3 2.10097 3 2.10067C3 2.10036 3 2.10005 3 2.09974C3 2.09943 3 2.09912 3 2.09881C3 2.0985 3 2.09819 3 2.09788C3 2.09756 3 2.09725 3 2.09694C3 2.09663 3 2.09632 3 2.096C3 2.09569 3 2.09538 3 2.09507C3 2.09475 3 2.09444 3 2.09413C3 2.09381 3 2.0935 3 2.09318C3 2.09287 3 2.09255 3 2.09224C3 2.09192 3 2.09161 3 2.09129C3 2.09098 3 2.09066 3 2.09034C3 2.09003 3 2.08971 3 2.08939C3 2.08908 3 2.08876 3 2.08844C3 2.08812 3 2.08781 3 2.08749C3 2.08717 3 2.08685 3 2.08653C3 2.08621 3 2.08589 3 2.08557C3 2.08525 3 2.08493 3 2.08461C3 2.08429 3 2.08397 3 2.08365C3 2.08333 3 2.08301 3 2.08269C3 2.08237 3 2.08204 3 2.08172C3 2.0814 3 2.08108 3 2.08075C3 2.08043 3 2.08011 3 2.07979C3 2.07946 3 2.07914 3 2.07882C3 2.07849 3 2.07817 3 2.07784C3 2.07752 3 2.07719 3 2.07687C3 2.07654 3 2.07622 3 2.07589C3 2.07557 3 2.07524 3 2.07491C3 2.07459 3 2.07426 3 2.07393C3 2.07361 3 2.07328 3 2.07295C3 2.07263 3 2.0723 3 2.07197C3 2.07164 3 2.07131 3 2.07099C3 2.07066 3 2.07033 3 2.07C3 2.06967 3 2.06934 3 2.06901C3 2.06868 3 2.06835 3 2.06802C3 2.06769 3 2.06736 3 2.06703C3 2.0667 3 2.06637 3 2.06604C3 2.06571 3 2.06538 3 2.06505C3 2.06471 3 2.06438 3 2.06405C3 2.06372 3 2.06339 3 2.06305C3 2.06272 3 2.06239 3 2.06205C3 2.06172 3 2.06139 3 2.06105C3 2.06072 3 2.06039 3 2.06005C3 2.05972 3 2.05938 3 2.05905C3 2.05871 3 2.05838 3 2.05804C3 2.05771 3 2.05737 3 2.05704C3 2.0567 3 2.05637 3 2.05603C3 2.05569 3 2.05536 3 2.05502C3 2.05468 3 2.05435 3 2.05401C3 2.05367 3 2.05334 3 2.053C3 2.05266 3 2.05232 3 2.05199C3 2.05165 3 2.05131 3 2.05097C3 2.05063 3 2.05029 3 2.04995C3 2.04962 3 2.04928 3 2.04894C3 2.0486 3 2.04826 3 2.04792C3 2.04758 3 2.04724 3 2.0469C3 2.04656 3 2.04622 3 2.04588C3 2.04554 3 2.0452 3 2.04486C3 2.04451 3 2.04417 3 2.04383C3 2.04349 3 2.04315 3 2.04281C3 2.04247 3 2.04212 3 2.04178C3 2.04144 3 2.0411 3 2.04075C3 2.04041 3 2.04007 3 2.03973C3 2.03938 3 2.03904 3 2.0387C3 2.03835 3 2.03801 3 2.03766C3 2.03732 3 2.03698 3 2.03663C3 2.03629 3 2.03594 3 2.0356C3 2.03525 3 2.03491 3 2.03457C3 2.03422 3 2.03388 3 2.03353C3 2.03318 3 2.03284 3 2.03249C3 2.03215 3 2.0318 3 2.03146C3 2.03111 3 2.03076 3 2.03042C3 2.03007 3 2.02972 3 2.02938C3 2.02903 3 2.02868 3 2.02834C3 2.02799 3 2.02764 3 2.0273C3 2.02695 3 2.0266 3 2.02625C3 2.02591 3 2.02556 3 2.02521C3 2.02486 3 2.02451 3 2.02416C3 2.02382 3 2.02347 3 2.02312C3 2.02277 3 2.02242 3 2.02207C3 2.02172 3 2.02137 3 2.02103C3 2.02068 3 2.02033 3 2.01998C3 2.01963 3 2.01928 3 2.01893C3 2.01858 3 2.01823 3 2.01788C3 2.01753 3 2.01718 3 2.01683C3 2.01648 3 2.01613 3 2.01578C3 2.01542 3 2.01507 3 2.01472C3 2.01437 3 2.01402 3 2.01367C3 2.01332 3 2.01297 3 2.01261C3 2.01226 3 2.01191 3 2.01156C3 2.01121 3 2.01086 3 2.0105C3 2.01015 3 2.0098 3 2.00945C3 2.0091 3 2.00874 3 2.00839C3 2.00804 3 2.00769 3 2.00733C3 2.00698 3 2.00663 3 2.00627C3 2.00592 3 2.00557 3 2.00521C3 2.00486 3 2.00451 3 2.00415C3 2.0038 3 2.00345 3 2.00309C3 2.00274 3 2.00239 3 2.00203C3 2.00168 3 2.00132 3 2.00097C3 2.00062 3 2.00026 3 1.99991C3 1.99955 3 1.9992 3 1.99884C3 1.99849 3 1.99814 3 1.99778C3 1.99743 3 1.99707 3 1.99672C3 1.99636 3 1.99601 3 1.99565C3 1.9953 3 1.99494 3 1.99459C3 1.99423 3 1.99388 3 1.99352C3 1.99317 3 1.99281 3 1.99245C3 1.9921 3 1.99174 3 1.99139C3 1.99103 3 1.99068 3 1.99032C3 1.98996 3 1.98961 3 1.98925C3 1.9889 3 1.98854 3 1.98818C3 1.98783 3 1.98747 3 1.98711C3 1.98676 3 1.9864 3 1.98605C3 1.98569 3 1.98533 3 1.98498C3 1.98462 3 1.98426 3 1.98391C3 1.98355 3 1.98319 3 1.98284C3 1.98248 3 1.98212 3 1.98176C3 1.98141 3 1.98105 3 1.98069C3 1.98034 3 1.97998 3 1.97962C3 1.97926 3 1.97891 3 1.97855C3 1.97819 3 1.97784 3 1.97748C3 1.97712 3 1.97676 3 1.97641C3 1.97605 3 1.97569 3 1.97533C3 1.97498 3 1.97462 3 1.97426C3 1.9739 3 1.97355 3 1.97319C3 1.97283 3 1.97247 3 1.97211C3 1.97176 3 1.9714 3 1.97104C3 1.97068 3 1.97032 3 1.96997C3 1.96961 3 1.96925 3 1.96889C3 1.96854 3 1.96818 3 1.96782C3 1.96746 3 1.9671 3 1.96674C3 1.96639 3 1.96603 3 1.96567C3 1.96531 3 1.96495 3 1.9646C3 1.96424 3 1.96388 3 1.96352C3 1.96316 3 1.96281 3 1.96245C3 1.96209 3 1.96173 3 1.96137C3 1.96101 3 1.96066 3 1.9603C3 1.95994 3 1.95958 3 1.95922C3 1.95886 3 1.95851 3 1.95815C3 1.95779 3 1.95743 3 1.95707C3 1.95672 3 1.95636 3 1.956C3 1.95564 3 1.95528 3 1.95492C3 1.95457 3 1.95421 3 1.95385C3 1.95349 3 1.95313 3 1.95277C3 1.95242 3 1.95206 3 1.9517C3 1.95134 3 1.95098 3 1.95063C3 1.95027 3 1.94991 3 1.94955C3 1.94919 3 1.94883 3 1.94848C3 1.94812 3 1.94776 3 1.9474C3 1.94704 3 1.94669 3 1.94633C3 1.94597 3 1.94561 3 1.94525C3 1.9449 3 1.94454 3 1.94418C3 1.94382 3 1.94346 3 1.94311C3 1.94275 3 1.94239 3 1.94203C3 1.94168 3 1.94132 3 1.94096C3 1.9406 3 1.94024 3 1.93989C3 1.93953 3 1.93917 3 1.93881C3 1.93846 3 1.9381 3 1.93774C3 1.93738 3 1.93703 3 1.93667C3 1.93631 3 1.93596 3 1.9356C3 1.93524 3 1.93488 3 1.93453C3 1.93417 3 1.93381 3 1.93346C3 1.9331 3 1.93274 3 1.93238C3 1.93203 3 1.93167 3 1.93131C3 1.93096 3 1.9306 3 1.93024C3 1.92989 3 1.92953 3 1.92917C3 1.92882 3 1.92846 3 1.9281C3 1.92775 3 1.92739 3 1.92704C3 1.92668 3 1.92632 3 1.92597C3 1.92561 3 1.92526 3 1.9249C3 1.92454 3 1.92419 3 1.92383C3 1.92348 3 1.92312 3 1.92276C3 1.92241 3 1.92205 3 1.9217C3 1.92134 3 1.92099 3 1.92063C3 1.92028 3 1.91992 3 1.91957C3 1.91921 3 1.91886 3 1.9185C3 1.91815 3 1.91779 3 1.91744C3 1.91708 3 1.91673 3 1.91637C3 1.91602 3 1.91566 3 1.91531C3 1.91495 3 1.9146 3 1.91425C3 1.91389 3 1.91354 3 1.91318C3 1.91283 3 1.91248 3 1.91212C3 1.91177 3 1.91142 3 1.91106C3 1.91071 3 1.91035 3 1.91C3 1.90965 3 1.90929 3 1.90894C3 1.90859 3 1.90824 3 1.90788C3 1.90753 3 1.90718 3 1.90682C3 1.90647 3 1.90612 3 1.90577C3 1.90541 3 1.90506 3 1.90471C3 1.90436 3 1.90401 3 1.90365C3 1.9033 3 1.90295 3 1.9026C3 1.90225 3 1.9019 3 1.90154C3 1.90119 3 1.90084 3 1.90049C3 1.90014 3 1.89979 3 1.89944C3 1.89909 3 1.89874 3 1.89839C3 1.89804 3 1.89769 3 1.89733C3 1.89698 3 1.89663 3 1.89628C3 1.89593 3 1.89558 3 1.89524C3 1.89489 3 1.89454 3 1.89419C3 1.89384 3 1.89349 3 1.89314C3 1.89279 3 1.89244 3 1.89209C3 1.89174 3 1.89139 3 1.89105C3 1.8907 3 1.89035 3 1.89C3 1.88965 3 1.88931 3 1.88896C3 1.88861 3 1.88826 3 1.88791C3 1.88757 3 1.88722 3 1.88687C3 1.88653 3 1.88618 3 1.88583C3 1.88548 3 1.88514 3 1.88479C3 1.88444 3 1.8841 3 1.88375C3 1.88341 3 1.88306 3 1.88271C3 1.88237 3 1.88202 3 1.88168C3 1.88133 3 1.88099 3 1.88064C3 1.8803 3 1.87995 3 1.87961C3 1.87926 3 1.87892 3 1.87857C3 1.87823 3 1.87789 3 1.87754C3 1.8772 3 1.87685 3 1.87651C3 1.87617 3 1.87582 3 1.87548C3 1.87514 3 1.87479 3 1.87445C3 1.87411 3 1.87377 3 1.87342C3 1.87308 3 1.87274 3 1.8724C3 1.87205 3 1.87171 3 1.87137C3 1.87103 3 1.87069 3 1.87035C3 1.87001 3 1.86967 3 1.86932C3 1.86898 3 1.86864 3 1.8683C3 1.86796 3 1.86762 3 1.86728C3 1.86694 3 1.8666 3 1.86626C3 1.86592 3 1.86558 3 1.86525C3 1.86491 3 1.86457 3 1.86423C3 1.86389 3 1.86355 3 1.86321C3 1.86288 3 1.86254 3 1.8622C3 1.86186 3 1.86153 3 1.86119C3 1.86085 3 1.86051 3 1.86018C3 1.85984 3 1.8595 3 1.85917C3 1.85883 3 1.8585 3 1.85816C3 1.85782 3 1.85749 3 1.85715C3 1.85682 3 1.85648 3 1.85615C3 1.85581 3 1.85548 3 1.85514C3 1.85481 3 1.85448 3 1.85414C3 1.85381 3 1.85347 3 1.85314C3 1.85281 3 1.85247 3 1.85214C3 1.85181 3 1.85148 3 1.85114C3 1.85081 3 1.85048 3 1.85015C3 1.84982 3 1.84948 3 1.84915C3 1.84882 3 1.84849 3 1.84816C3 1.84783 3 1.8475 3 1.84717C3 1.84684 3 1.84651 3 1.84618C3 1.84585 3 1.84552 3 1.84519C3 1.84486 3 1.84453 3 1.8442C3 1.84387 3 1.84355 3 1.84322C3 1.84289 3 1.84256 3 1.84223C3 1.84191 3 1.84158 3 1.84125C3 1.84093 3 1.8406 3 1.84027C3 1.83995 3 1.83962 3 1.83929C3 1.83897 3 1.83864 3 1.83832C3 1.83799 3 1.83767 3 1.83734C3 1.83702 3 1.83669 3 1.83637C3 1.83605 3 1.83572 3 1.8354C3 1.83507 3 1.83475 3 1.83443C3 1.83411 3 1.83378 3 1.83346C3 1.83314 3 1.83282 3 1.83249C3 1.83217 3 1.83185 3 1.83153C3 1.83121 3 1.83089 3 1.83057C3 1.83025 3 1.82993 3 1.82961C3 1.82929 3 1.82897 3 1.82865C3 1.82833 3 1.82801 3 1.82769C3 1.82737 3 1.82705 3 1.82674C3 1.82642 3 1.8261 3 1.82578C3 1.82547 3 1.82515 3 1.82483C3 1.82452 3 1.8242 3 1.82388C3 1.82357 3 1.82325 3 1.82294C3 1.82262 3 1.82231 3 1.82199C3 1.82168 3 1.82136 3 1.82105C3 1.82073 3 1.82042 3 1.82011C3 1.81979 3 1.81948 3 1.81917C3 1.81886 3 1.81854 3 1.81823H2C2 1.81854 2 1.81886 2 1.81917C2 1.81948 2 1.81979 2 1.82011C2 1.82042 2 1.82073 2 1.82105C2 1.82136 2 1.82168 2 1.82199C2 1.82231 2 1.82262 2 1.82294C2 1.82325 2 1.82357 2 1.82388C2 1.8242 2 1.82452 2 1.82483C2 1.82515 2 1.82547 2 1.82578C2 1.8261 2 1.82642 2 1.82674C2 1.82705 2 1.82737 2 1.82769C2 1.82801 2 1.82833 2 1.82865C2 1.82897 2 1.82929 2 1.82961C2 1.82993 2 1.83025 2 1.83057C2 1.83089 2 1.83121 2 1.83153C2 1.83185 2 1.83217 2 1.83249C2 1.83282 2 1.83314 2 1.83346C2 1.83378 2 1.83411 2 1.83443C2 1.83475 2 1.83507 2 1.8354C2 1.83572 2 1.83605 2 1.83637C2 1.83669 2 1.83702 2 1.83734C2 1.83767 2 1.83799 2 1.83832C2 1.83864 2 1.83897 2 1.83929C2 1.83962 2 1.83995 2 1.84027C2 1.8406 2 1.84093 2 1.84125C2 1.84158 2 1.84191 2 1.84223C2 1.84256 2 1.84289 2 1.84322C2 1.84355 2 1.84387 2 1.8442C2 1.84453 2 1.84486 2 1.84519C2 1.84552 2 1.84585 2 1.84618C2 1.84651 2 1.84684 2 1.84717C2 1.8475 2 1.84783 2 1.84816C2 1.84849 2 1.84882 2 1.84915C2 1.84948 2 1.84982 2 1.85015C2 1.85048 2 1.85081 2 1.85114C2 1.85148 2 1.85181 2 1.85214C2 1.85247 2 1.85281 2 1.85314C2 1.85347 2 1.85381 2 1.85414C2 1.85448 2 1.85481 2 1.85514C2 1.85548 2 1.85581 2 1.85615C2 1.85648 2 1.85682 2 1.85715C2 1.85749 2 1.85782 2 1.85816C2 1.8585 2 1.85883 2 1.85917C2 1.8595 2 1.85984 2 1.86018C2 1.86051 2 1.86085 2 1.86119C2 1.86153 2 1.86186 2 1.8622C2 1.86254 2 1.86288 2 1.86321C2 1.86355 2 1.86389 2 1.86423C2 1.86457 2 1.86491 2 1.86525C2 1.86558 2 1.86592 2 1.86626C2 1.8666 2 1.86694 2 1.86728C2 1.86762 2 1.86796 2 1.8683C2 1.86864 2 1.86898 2 1.86932C2 1.86967 2 1.87001 2 1.87035C2 1.87069 2 1.87103 2 1.87137C2 1.87171 2 1.87205 2 1.8724C2 1.87274 2 1.87308 2 1.87342C2 1.87377 2 1.87411 2 1.87445C2 1.87479 2 1.87514 2 1.87548C2 1.87582 2 1.87617 2 1.87651C2 1.87685 2 1.8772 2 1.87754C2 1.87789 2 1.87823 2 1.87857C2 1.87892 2 1.87926 2 1.87961C2 1.87995 2 1.8803 2 1.88064C2 1.88099 2 1.88133 2 1.88168C2 1.88202 2 1.88237 2 1.88271C2 1.88306 2 1.88341 2 1.88375C2 1.8841 2 1.88444 2 1.88479C2 1.88514 2 1.88548 2 1.88583C2 1.88618 2 1.88653 2 1.88687C2 1.88722 2 1.88757 2 1.88791C2 1.88826 2 1.88861 2 1.88896C2 1.88931 2 1.88965 2 1.89C2 1.89035 2 1.8907 2 1.89105C2 1.89139 2 1.89174 2 1.89209C2 1.89244 2 1.89279 2 1.89314C2 1.89349 2 1.89384 2 1.89419C2 1.89454 2 1.89489 2 1.89524C2 1.89558 2 1.89593 2 1.89628C2 1.89663 2 1.89698 2 1.89733C2 1.89769 2 1.89804 2 1.89839C2 1.89874 2 1.89909 2 1.89944C2 1.89979 2 1.90014 2 1.90049C2 1.90084 2 1.90119 2 1.90154C2 1.9019 2 1.90225 2 1.9026C2 1.90295 2 1.9033 2 1.90365C2 1.90401 2 1.90436 2 1.90471C2 1.90506 2 1.90541 2 1.90577C2 1.90612 2 1.90647 2 1.90682C2 1.90718 2 1.90753 2 1.90788C2 1.90824 2 1.90859 2 1.90894C2 1.90929 2 1.90965 2 1.91C2 1.91035 2 1.91071 2 1.91106C2 1.91142 2 1.91177 2 1.91212C2 1.91248 2 1.91283 2 1.91318C2 1.91354 2 1.91389 2 1.91425C2 1.9146 2 1.91495 2 1.91531C2 1.91566 2 1.91602 2 1.91637C2 1.91673 2 1.91708 2 1.91744C2 1.91779 2 1.91815 2 1.9185C2 1.91886 2 1.91921 2 1.91957C2 1.91992 2 1.92028 2 1.92063C2 1.92099 2 1.92134 2 1.9217C2 1.92205 2 1.92241 2 1.92276C2 1.92312 2 1.92348 2 1.92383C2 1.92419 2 1.92454 2 1.9249C2 1.92526 2 1.92561 2 1.92597C2 1.92632 2 1.92668 2 1.92704C2 1.92739 2 1.92775 2 1.9281C2 1.92846 2 1.92882 2 1.92917C2 1.92953 2 1.92989 2 1.93024C2 1.9306 2 1.93096 2 1.93131C2 1.93167 2 1.93203 2 1.93238C2 1.93274 2 1.9331 2 1.93346C2 1.93381 2 1.93417 2 1.93453C2 1.93488 2 1.93524 2 1.9356C2 1.93596 2 1.93631 2 1.93667C2 1.93703 2 1.93738 2 1.93774C2 1.9381 2 1.93846 2 1.93881C2 1.93917 2 1.93953 2 1.93989C2 1.94024 2 1.9406 2 1.94096C2 1.94132 2 1.94168 2 1.94203C2 1.94239 2 1.94275 2 1.94311C2 1.94346 2 1.94382 2 1.94418C2 1.94454 2 1.9449 2 1.94525C2 1.94561 2 1.94597 2 1.94633C2 1.94669 2 1.94704 2 1.9474C2 1.94776 2 1.94812 2 1.94848C2 1.94883 2 1.94919 2 1.94955C2 1.94991 2 1.95027 2 1.95063C2 1.95098 2 1.95134 2 1.9517C2 1.95206 2 1.95242 2 1.95277C2 1.95313 2 1.95349 2 1.95385C2 1.95421 2 1.95457 2 1.95492C2 1.95528 2 1.95564 2 1.956C2 1.95636 2 1.95672 2 1.95707C2 1.95743 2 1.95779 2 1.95815C2 1.95851 2 1.95886 2 1.95922C2 1.95958 2 1.95994 2 1.9603C2 1.96066 2 1.96101 2 1.96137C2 1.96173 2 1.96209 2 1.96245C2 1.96281 2 1.96316 2 1.96352C2 1.96388 2 1.96424 2 1.9646C2 1.96495 2 1.96531 2 1.96567C2 1.96603 2 1.96639 2 1.96674C2 1.9671 2 1.96746 2 1.96782C2 1.96818 2 1.96854 2 1.96889C2 1.96925 2 1.96961 2 1.96997C2 1.97032 2 1.97068 2 1.97104C2 1.9714 2 1.97176 2 1.97211C2 1.97247 2 1.97283 2 1.97319C2 1.97355 2 1.9739 2 1.97426C2 1.97462 2 1.97498 2 1.97533C2 1.97569 2 1.97605 2 1.97641C2 1.97676 2 1.97712 2 1.97748C2 1.97784 2 1.97819 2 1.97855C2 1.97891 2 1.97926 2 1.97962C2 1.97998 2 1.98034 2 1.98069C2 1.98105 2 1.98141 2 1.98176C2 1.98212 2 1.98248 2 1.98284C2 1.98319 2 1.98355 2 1.98391C2 1.98426 2 1.98462 2 1.98498C2 1.98533 2 1.98569 2 1.98605C2 1.9864 2 1.98676 2 1.98711C2 1.98747 2 1.98783 2 1.98818C2 1.98854 2 1.9889 2 1.98925C2 1.98961 2 1.98996 2 1.99032C2 1.99068 2 1.99103 2 1.99139C2 1.99174 2 1.9921 2 1.99245C2 1.99281 2 1.99317 2 1.99352C2 1.99388 2 1.99423 2 1.99459C2 1.99494 2 1.9953 2 1.99565C2 1.99601 2 1.99636 2 1.99672C2 1.99707 2 1.99743 2 1.99778C2 1.99814 2 1.99849 2 1.99884C2 1.9992 2 1.99955 2 1.99991C2 2.00026 2 2.00062 2 2.00097C2 2.00132 2 2.00168 2 2.00203C2 2.00239 2 2.00274 2 2.00309C2 2.00345 2 2.0038 2 2.00415C2 2.00451 2 2.00486 2 2.00521C2 2.00557 2 2.00592 2 2.00627C2 2.00663 2 2.00698 2 2.00733C2 2.00769 2 2.00804 2 2.00839C2 2.00874 2 2.0091 2 2.00945C2 2.0098 2 2.01015 2 2.0105C2 2.01086 2 2.01121 2 2.01156C2 2.01191 2 2.01226 2 2.01261C2 2.01297 2 2.01332 2 2.01367C2 2.01402 2 2.01437 2 2.01472C2 2.01507 2 2.01542 2 2.01578C2 2.01613 2 2.01648 2 2.01683C2 2.01718 2 2.01753 2 2.01788C2 2.01823 2 2.01858 2 2.01893C2 2.01928 2 2.01963 2 2.01998C2 2.02033 2 2.02068 2 2.02103C2 2.02137 2 2.02172 2 2.02207C2 2.02242 2 2.02277 2 2.02312C2 2.02347 2 2.02382 2 2.02416C2 2.02451 2 2.02486 2 2.02521C2 2.02556 2 2.02591 2 2.02625C2 2.0266 2 2.02695 2 2.0273C2 2.02764 2 2.02799 2 2.02834C2 2.02868 2 2.02903 2 2.02938C2 2.02972 2 2.03007 2 2.03042C2 2.03076 2 2.03111 2 2.03146C2 2.0318 2 2.03215 2 2.03249C2 2.03284 2 2.03318 2 2.03353C2 2.03388 2 2.03422 2 2.03457C2 2.03491 2 2.03525 2 2.0356C2 2.03594 2 2.03629 2 2.03663C2 2.03698 2 2.03732 2 2.03766C2 2.03801 2 2.03835 2 2.0387C2 2.03904 2 2.03938 2 2.03973C2 2.04007 2 2.04041 2 2.04075C2 2.0411 2 2.04144 2 2.04178C2 2.04212 2 2.04247 2 2.04281C2 2.04315 2 2.04349 2 2.04383C2 2.04417 2 2.04451 2 2.04486C2 2.0452 2 2.04554 2 2.04588C2 2.04622 2 2.04656 2 2.0469C2 2.04724 2 2.04758 2 2.04792C2 2.04826 2 2.0486 2 2.04894C2 2.04928 2 2.04962 2 2.04995C2 2.05029 2 2.05063 2 2.05097C2 2.05131 2 2.05165 2 2.05199C2 2.05232 2 2.05266 2 2.053C2 2.05334 2 2.05367 2 2.05401C2 2.05435 2 2.05468 2 2.05502C2 2.05536 2 2.05569 2 2.05603C2 2.05637 2 2.0567 2 2.05704C2 2.05737 2 2.05771 2 2.05804C2 2.05838 2 2.05871 2 2.05905C2 2.05938 2 2.05972 2 2.06005C2 2.06039 2 2.06072 2 2.06105C2 2.06139 2 2.06172 2 2.06205C2 2.06239 2 2.06272 2 2.06305C2 2.06339 2 2.06372 2 2.06405C2 2.06438 2 2.06471 2 2.06505C2 2.06538 2 2.06571 2 2.06604C2 2.06637 2 2.0667 2 2.06703C2 2.06736 2 2.06769 2 2.06802C2 2.06835 2 2.06868 2 2.06901C2 2.06934 2 2.06967 2 2.07C2 2.07033 2 2.07066 2 2.07099C2 2.07131 2 2.07164 2 2.07197C2 2.0723 2 2.07263 2 2.07295C2 2.07328 2 2.07361 2 2.07393C2 2.07426 2 2.07459 2 2.07491C2 2.07524 2 2.07557 2 2.07589C2 2.07622 2 2.07654 2 2.07687C2 2.07719 2 2.07752 2 2.07784C2 2.07817 2 2.07849 2 2.07882C2 2.07914 2 2.07946 2 2.07979C2 2.08011 2 2.08043 2 2.08075C2 2.08108 2 2.0814 2 2.08172C2 2.08204 2 2.08237 2 2.08269C2 2.08301 2 2.08333 2 2.08365C2 2.08397 2 2.08429 2 2.08461C2 2.08493 2 2.08525 2 2.08557C2 2.08589 2 2.08621 2 2.08653C2 2.08685 2 2.08717 2 2.08749C2 2.08781 2 2.08812 2 2.08844C2 2.08876 2 2.08908 2 2.08939C2 2.08971 2 2.09003 2 2.09034C2 2.09066 2 2.09098 2 2.09129C2 2.09161 2 2.09192 2 2.09224C2 2.09255 2 2.09287 2 2.09318C2 2.0935 2 2.09381 2 2.09413C2 2.09444 2 2.09475 2 2.09507C2 2.09538 2 2.09569 2 2.096C2 2.09632 2 2.09663 2 2.09694C2 2.09725 2 2.09756 2 2.09788C2 2.09819 2 2.0985 2 2.09881C2 2.09912 2 2.09943 2 2.09974C2 2.10005 2 2.10036 2 2.10067C2 2.10097 2 2.10128 2 2.10159C2 2.1019 2 2.10221 2 2.10252C2 2.10282 2 2.10313 2 2.10344C2 2.10374 2 2.10405 2 2.10436C2 2.10466 2 2.10497 2 2.10527C2 2.10558 2 2.10588 2 2.10619C2 2.10649 2 2.1068 2 2.1071C2 2.10741 2 2.10771 2 2.10801C2 2.10832 2 2.10862 2 2.10892C2 2.10922 2 2.10953 2 2.10983C2 2.11013 2 2.11043 2 2.11073C2 2.11103 2 2.11133 2 2.11163C2 2.11193 2 2.11223 2 2.11253C2 2.11283 2 2.11313 2 2.11343C2 2.11373 2 2.11403 2 2.11432C2 2.11462 2 2.11492 2 2.11522C2 2.11551 2 2.11581 2 2.11611C2 2.1164 2 2.1167 2 2.11699C2 2.11729 2 2.11758 2 2.11788C2 2.11817 2 2.11847 2 2.11876C2 2.11906 2 2.11935 2 2.11964C2 2.11994 2 2.12023 2 2.12052C2 2.12081 2 2.12111 2 2.1214C2 2.12169 2 2.12198 2 2.12227C2 2.12256 2 2.12285 2 2.12314C2 2.12343 2 2.12372 2 2.12401C2 2.1243 2 2.12459 2 2.12487C2 2.12516 2 2.12545 2 2.12574C2 2.12602 2 2.12631 2 2.1266C2 2.12688 2 2.12717 2 2.12746C2 2.12774 2 2.12803 2 2.12831C2 2.1286 2 2.12888 2 2.12916C2 2.12945 2 2.12973 2 2.13001C2 2.1303 2 2.13058 2 2.13086C2 2.13114 2 2.13143 2 2.13171C2 2.13199 2 2.13227 2 2.13255C2 2.13283 2 2.13311 2 2.13339C2 2.13367 2 2.13395 2 2.13423C2 2.1345 2 2.13478 2 2.13506C2 2.13534 2 2.13562 2 2.13589C2 2.13617 2 2.13644 2 2.13672C2 2.137 2 2.13727 2 2.13755C2 2.13782 2 2.1381 2 2.13837C2 2.13864 2 2.13892 2 2.13919C2 2.13946 2 2.13974 2 2.14001C2 2.14028 2 2.14055 2 2.14082C2 2.14109 2 2.14137 2 2.14164C2 2.14191 2 2.14218 2 2.14245C2 2.14271 2 2.14298 2 2.14325C2 2.14352 2 2.14379 2 2.14406C2 2.14432 2 2.14459 2 2.14486C2 2.14512 2 2.14539 2 2.14565C2 2.14592 2 2.14618 2 2.14645C2 2.14671 2 2.14698 2 2.14724C2 2.14751 2 2.14777 2 2.14803C2 2.14829 2 2.14856 2 2.14882C2 2.14908 2 2.14934 2 2.1496C2 2.14986 2 2.15012 2 2.15038C2 2.15064 2 2.1509 2 2.15116C2 2.15142 2 2.15167 2 2.15193C2 2.15219 2 2.15245 2 2.1527C2 2.15296 2 2.15322 2 2.15347C2 2.15373 2 2.15398 2 2.15424C2 2.15449 2 2.15475 2 2.155C2 2.15525 2 2.15551 2 2.15576C2 2.15601 2 2.15626 2 2.15651C2 2.15677 2 2.15702 2 2.15727C2 2.15752 2 2.15777 2 2.15802C2 2.15827 2 2.15851 2 2.15876C2 2.15901 2 2.15926 2 2.15951C2 2.15975 2 2.16 2 2.16025C2 2.16049 2 2.16074 2 2.16098C2 2.16123 2 2.16147 2 2.16172C2 2.16196 2 2.1622 2 2.16245C2 2.16269 2 2.16293 2 2.16317C2 2.16342 2 2.16366 2 2.1639C2 2.16414 2 2.16438 2 2.16462C2 2.16486 2 2.1651 2 2.16534C2 2.16558 2 2.16581 2 2.16605C2 2.16629 2 2.16653 2 2.16676C2 2.167 2 2.16723 2 2.16747C2 2.16771 2 2.16794 2 2.16817C2 2.16841 2 2.16864 2 2.16888C2 2.16911 2 2.16934 2 2.16957C2 2.1698 2 2.17004 2 2.17027C2 2.1705 2 2.17073 2 2.17096C2 2.17119 2 2.17142 2 2.17164C2 2.17187 2 2.1721 2 2.17233C2 2.17256 2 2.17278 2 2.17301C2 2.17324 2 2.17346 2 2.17369C2 2.17391 2 2.17414 2 2.17436C2 2.17458 2 2.17481 2 2.17503C2 2.17525 2 2.17547 2 2.1757C2 2.17592 2 2.17614 2 2.17636C2 2.17658 2 2.1768 2 2.17702C2 2.17724 2 2.17746 2 2.17767C2 2.17789 2 2.17811 2 2.17833C2 2.17854 2 2.17876 2 2.17897C2 2.17919 2 2.17941 2 2.17962C2 2.17983 2 2.18005 2 2.18026C2 2.18047 2 2.18069 2 2.1809C2 2.18111 2 2.18132 2 2.18153C2 2.18174 2 2.18195 2 2.18216C2 2.18237 2 2.18258 2 2.18279C2 2.183 2 2.18321 2 2.18341C2 2.18362 2 2.18383 2 2.18403C2 2.18424 2 2.18444 2 2.18465C2 2.18485 2 2.18506 2 2.18526C2 2.18546 2 2.18567 2 2.18587C2 2.18607 2 2.18627 2 2.18647C2 2.18667 2 2.18688 2 2.18707C2 2.18727 2 2.18747 2 2.18767C2 2.18787 2 2.18807 2 2.18826C2 2.18846 2 2.18866 2 2.18885C2 2.18905 2 2.18924 2 2.18944C2 2.18963 2 2.18983 2 2.19002C2 2.19021 2 2.19041 2 2.1906C2 2.19079 2 2.19098 2 2.19117C2 2.19136 2 2.19155 2 2.19174C2 2.19193 2 2.19212 2 2.19231C2 2.1925 2 2.19268 2 2.19287C2 2.19306 2 2.19324 2 2.19343C2 2.19361 2 2.1938 2 2.19398C2 2.19417 2 2.19435 2 2.19453C2 2.19472 2 2.1949 2 2.19508C2 2.19526 2 2.19544 2 2.19562C2 2.1958 2 2.19598 2 2.19616C2 2.19634 2 2.19652 2 2.19669C2 2.19687 2 2.19705 2 2.19722C2 2.1974 2 2.19757 2 2.19775C2 2.19792 2 2.1981 2 2.19827C2 2.19844 2 2.19862 2 2.19879C2 2.19896 2 2.19913 2 2.1993C2 2.19947 2 2.19964 2 2.19981C2 2.19998 2 2.20015 2 2.20032C2 2.20048 2 2.20065 2 2.20082C2 2.20098 2 2.20115 2 2.20132C2 2.20148 2 2.20164 2 2.20181C2 2.20197 2 2.20213 2 2.2023C2 2.20246 2 2.20262 2 2.20278C2 2.20294 2 2.2031 2 2.20326C2 2.20342 2 2.20358 2 2.20374C2 2.20389 2 2.20405 2 2.20421C2 2.20437 2 2.20452 2 2.20468C2 2.20483 2 2.20499 2 2.20514C2 2.20529 2 2.20545 2 2.2056C2 2.20575 2 2.2059 2 2.20605C2 2.2062 2 2.20635 2 2.2065C2 2.20665 2 2.2068 2 2.20695C2 2.2071 2 2.20724 2 2.20739C2 2.20754 2 2.20768 2 2.20783C2 2.20797 2 2.20812 2 2.20826C2 2.2084 2 2.20855 2 2.20869C2 2.20883 2 2.20897 2 2.20911C2 2.20925 2 2.20939 2 2.20953C2 2.20967 2 2.20981 2 2.20994C2 2.21008 2 2.21022 2 2.21036C2 2.21049 2 2.21063 2 2.21076C2 2.2109 2 2.21103 2 2.21116C2 2.2113 2 2.21143 2 2.21156C2 2.21169 2 2.21182 2 2.21195C2 2.21208 2 2.21221 2 2.21234C2 2.21247 2 2.2126 2 2.21272C2 2.21285 2 2.21298 2 2.2131C2 2.21323 2 2.21335 2 2.21347C2 2.2136 2 2.21372 2 2.21384C2 2.21397 2 2.21409 2 2.21421C2 2.21433 2 2.21445 2 2.21457C2 2.21469 2 2.21481 2 2.21492C2 2.21504 2 2.21516 2 2.21527C2 2.21539 2 2.21551 2 2.21562C2 2.21574 2 2.21585 2 2.21596C2 2.21607 2 2.21619 2 2.2163C2 2.21641 2 2.21652 2 2.21663C2 2.21674 2 2.21685 2 2.21696C2 2.21707 2 2.21717 2 2.21728C2 2.21739 2 2.21749 2 2.2176C2 2.2177 2 2.21781 2 2.21791C2 2.21801 2 2.21812 2 2.21822C2 2.21832 2 2.21842 2 2.21852C2 2.21862 2 2.21872 2 2.21882C2 2.21892 2 2.21902 2 2.21911C2 2.21921 2 2.21931 2 2.2194C2 2.2195 2 2.21959 2 2.21968C2 2.21978 2 2.21987 2 2.21996C2 2.22006 2 2.22015 2 2.22024C2 2.22033 2 2.22042 2 2.22051C2 2.22059 2 2.22068 2 2.22077C2 2.22086 2 2.22094 2 2.22103C2 2.22111 2 2.2212 2 2.22128C2 2.22137 2 2.22145 2 2.22153C2 2.22161 2 2.2217 2 2.22178C2 2.22186 2 2.22194 2 2.22201C2 2.22209 2 2.22217 2 2.22225C2 2.22233 2 2.2224 2 2.22248C2 2.22255 2 2.22263 2 2.2227C2 2.22278 2 2.22285 2 2.22292C2 2.22299 2 2.22306 2 2.22313C2 2.2232 2 2.22327 2 2.22334C2 2.22341 2 2.22348 2 2.22355C2 2.22361 2 2.22368 2 2.22374C2 2.22381 2 2.22387 2 2.22394C2 2.224 2 2.22406 2 2.22412C2 2.22419 2 2.22425 2 2.22431C2 2.22437 2 2.22443 2 2.22448C2 2.22454 2 2.2246 2 2.22466C2 2.22471 2 2.22477 2 2.22482C2 2.22488 2 2.22493 2 2.22499C2 2.22504 2 2.22509 2 2.22514C2 2.22519 2 2.22524 2 2.22529C2 2.22534 2 2.22539 2 2.22544C2 2.22549 2 2.22553 2 2.22558C2 2.22563 2 2.22567 2 2.22572C2 2.22576 2 2.2258 2 2.22585C2 2.22589 2 2.22593 2 2.22597C2 2.22601 2 2.22605 2 2.22609C2 2.22613 2 2.22617 2 2.2262C2 2.22624 2 2.22628 2 2.22631C2 2.22635 2 2.22638 2 2.22641C2 2.22645 2 2.22648 2 2.22651C2 2.22654 2 2.22657 2 2.2266C2 2.22663 2 2.22666 2 2.22669C2 2.22672 2 2.22675 2 2.22677C2 2.2268 2 2.22682 2 2.22685C2 2.22687 2 2.22689 2 2.22692C2 2.22694 2 2.22696 2 2.22698C2 2.227 2 2.22702 2 2.22704C2 2.22706 2 2.22708 2 2.22709C2 2.22711 2 2.22713 2 2.22714C2 2.22716 2 2.22717 2 2.22718C2 2.2272 2 2.22721 2 2.22722C2 2.22723 2 2.22724 2 2.22725C2 2.22726 2 2.22727 2 2.22728C2 2.22729 2 2.22729 2 2.2273C2 2.2273 2 2.22731 2 2.22731C2 2.22732 2 2.22732 2 2.22732C2 2.22732 2 2.22732 2.5 2.22732ZM3.3185 1.50004C3.39818 1.49999 3.50029 1.49999 3.58257 1.50001C3.62369 1.50001 3.65982 1.50002 3.68567 1.50003C3.6986 1.50003 3.70895 1.50004 3.71608 1.50004C3.71964 1.50004 3.72239 1.50004 3.72425 1.50004C3.72518 1.50004 3.72589 1.50004 3.72636 1.50004C3.7266 1.50004 3.72678 1.50004 3.7269 1.50004C3.72696 1.50004 3.72701 1.50004 3.72704 1.50004C3.72705 1.50004 3.72706 1.50004 3.72707 1.50004C3.72707 1.50004 3.72707 1.50004 3.72708 1.50004C3.72708 1.50004 3.72708 1.50004 3.72728 1.00004C3.72748 0.500044 3.72748 0.500044 3.72748 0.500044C3.72747 0.500044 3.72747 0.500044 3.72747 0.500044C3.72746 0.500044 3.72745 0.500044 3.72743 0.500044C3.7274 0.500044 3.72736 0.500044 3.7273 0.500044C3.72717 0.500044 3.72699 0.500044 3.72675 0.500044C3.72628 0.500044 3.72556 0.500044 3.72463 0.500043C3.72276 0.500043 3.72 0.500042 3.71643 0.50004C3.70929 0.500038 3.69892 0.500034 3.68598 0.50003C3.66009 0.500023 3.6239 0.500013 3.58272 0.500007C3.50039 0.499994 3.39796 0.499994 3.31787 0.500044L3.3185 1.50004ZM3.72728 1.50004H14.3637V0.500044H3.72728V1.50004Z" fill="#ADADAD"/>
<path d="M11.3861 7.81019V14.9693C11.3861 15.1049 11.3262 15.235 11.2196 15.3309C11.1131 15.4268 10.9686 15.4807 10.8179 15.4807C10.6672 15.4807 10.5227 15.4268 10.4161 15.3309C10.3095 15.235 10.2497 15.1049 10.2497 14.9693V7.81019C10.2497 7.67457 10.3095 7.5445 10.4161 7.4486C10.5227 7.3527 10.6672 7.29883 10.8179 7.29883C10.9686 7.29883 11.1131 7.3527 11.2196 7.4486C11.3262 7.5445 11.3861 7.67457 11.3861 7.81019ZM17.0679 7.29883H13.6588C13.5081 7.29883 13.3636 7.3527 13.257 7.4486C13.1505 7.5445 13.0906 7.67457 13.0906 7.81019V14.9693C13.0906 15.1049 13.1505 15.235 13.257 15.3309C13.3636 15.4268 13.5081 15.4807 13.6588 15.4807C13.8095 15.4807 13.954 15.4268 14.0606 15.3309C14.1671 15.235 14.227 15.1049 14.227 14.9693V11.9011H16.4997C16.6504 11.9011 16.7949 11.8473 16.9015 11.7514C17.008 11.6555 17.0679 11.5254 17.0679 11.3898C17.0679 11.2541 17.008 11.1241 16.9015 11.0282C16.7949 10.9323 16.6504 10.8784 16.4997 10.8784H14.227V8.32156H17.0679C17.2186 8.32156 17.3631 8.26769 17.4697 8.17179C17.5762 8.07589 17.6361 7.94582 17.6361 7.81019C17.6361 7.67457 17.5762 7.5445 17.4697 7.4486C17.3631 7.3527 17.2186 7.29883 17.0679 7.29883ZM7.97695 10.8784H6.27239C6.1217 10.8784 5.97718 10.9323 5.87062 11.0282C5.76407 11.1241 5.70421 11.2541 5.70421 11.3898C5.70421 11.5254 5.76407 11.6555 5.87062 11.7514C5.97718 11.8473 6.1217 11.9011 6.27239 11.9011H7.40876V12.9239C7.40876 13.3307 7.22917 13.7209 6.90951 14.0086C6.58984 14.2963 6.15628 14.458 5.70421 14.458C5.25213 14.458 4.81857 14.2963 4.4989 14.0086C4.17924 13.7209 3.99965 13.3307 3.99965 12.9239V9.85566C3.99965 9.44879 4.17924 9.05859 4.4989 8.77089C4.81857 8.48319 5.25213 8.32156 5.70421 8.32156C6.49895 8.32156 7.23902 8.81631 7.42652 9.47214C7.46419 9.60352 7.55831 9.71605 7.68818 9.78498C7.81804 9.85391 7.97301 9.87359 8.11899 9.83968C8.26498 9.80577 8.39001 9.72107 8.4666 9.60419C8.54319 9.48731 8.56505 9.34784 8.52738 9.21645C8.20919 8.10551 7.0224 7.29883 5.70421 7.29883C4.95075 7.29883 4.22815 7.56821 3.69537 8.04771C3.16259 8.52721 2.86328 9.17755 2.86328 9.85566V12.9239C2.86328 13.602 3.16259 14.2523 3.69537 14.7318C4.22815 15.2113 4.95075 15.4807 5.70421 15.4807C6.45767 15.4807 7.18027 15.2113 7.71304 14.7318C8.24582 14.2523 8.54513 13.602 8.54513 12.9239V11.3898C8.54513 11.2541 8.48527 11.1241 8.37871 11.0282C8.27216 10.9323 8.12764 10.8784 7.97695 10.8784Z" fill="#ADADAD"/>
</svg>
