<svg width="40" height="40" viewBox="0 0 40 40" fill="none" xmlns="http://www.w3.org/2000/svg">
<rect x="0.5" y="0.5" width="39" height="39" rx="19.5" stroke="url(#paint0_linear_1309_12579)"/>
<path d="M26.2185 20.0357L18.1057 28.8258C18.0197 28.9186 17.9062 28.9806 17.7824 29.0024C17.6585 29.0243 17.531 29.0048 17.419 28.9469C17.3071 28.889 17.2168 28.7958 17.1618 28.6815C17.1067 28.5672 17.09 28.4379 17.114 28.313L18.1759 22.9416L14.0015 21.3564C13.9118 21.3225 13.8319 21.2667 13.7688 21.1939C13.7057 21.1211 13.6614 21.0336 13.6398 20.9393C13.6183 20.845 13.6202 20.7468 13.6454 20.6534C13.6706 20.56 13.7183 20.4744 13.7842 20.4041L21.897 11.614C21.983 11.5212 22.0964 11.4593 22.2203 11.4374C22.3442 11.4156 22.4717 11.4351 22.5837 11.493C22.6956 11.5508 22.7859 11.644 22.8409 11.7583C22.8959 11.8727 22.9127 12.002 22.8886 12.1268L21.8238 17.5041L25.9983 19.0871C26.0873 19.1212 26.1666 19.177 26.2292 19.2495C26.2918 19.322 26.3358 19.409 26.3573 19.5027C26.3788 19.5965 26.3771 19.6942 26.3524 19.7871C26.3277 19.8801 26.2807 19.9655 26.2156 20.0357H26.2185Z" fill="url(#paint1_linear_1309_12579)"/>
<defs>
<linearGradient id="paint0_linear_1309_12579" x1="5.55556" y1="30.7317" x2="31.4156" y2="2.91404" gradientUnits="userSpaceOnUse">
<stop stop-color="#BE11AD"/>
<stop offset="0.473958" stop-color="#A30BC9"/>
<stop offset="1" stop-color="#CB14F9"/>
</linearGradient>
<linearGradient id="paint1_linear_1309_12579" x1="15.3955" y1="24.9372" x2="26.4494" y2="16.3164" gradientUnits="userSpaceOnUse">
<stop stop-color="#BE11AD"/>
<stop offset="0.473958" stop-color="#A30BC9"/>
<stop offset="1" stop-color="#CB14F9"/>
</linearGradient>
</defs>
</svg>
