<svg width="24" height="24" viewBox="0 0 24 24" fill="none" xmlns="http://www.w3.org/2000/svg">
<path d="M12.0004 3.25C7.16793 3.25 3.25043 7.1675 3.25043 12C3.25043 13.594 3.67593 15.0865 4.41943 16.3725C4.50443 16.519 4.52593 16.6935 4.47943 16.8565L3.42143 20.5775L7.14143 19.5195C7.22201 19.4966 7.30638 19.49 7.38953 19.5003C7.47267 19.5106 7.5529 19.5376 7.62543 19.5795C8.95499 20.3487 10.4644 20.7526 12.0004 20.75C16.8329 20.75 20.7504 16.8325 20.7504 12C20.7504 7.1675 16.8329 3.25 12.0004 3.25ZM2.00043 12C2.00043 6.477 6.47743 2 12.0004 2C17.5234 2 22.0004 6.477 22.0004 12C22.0004 17.523 17.5234 22 12.0004 22C10.2754 22 8.65143 21.563 7.23393 20.793L3.11543 21.964C2.45593 22.1515 1.84693 21.542 2.03443 20.883L3.20543 16.764C2.41212 15.3016 1.99784 13.6637 2.00043 12ZM8.00043 10.125C8.00043 9.78 8.28043 9.5 8.62543 9.5H15.3754C15.4575 9.5 15.5388 9.51617 15.6146 9.54757C15.6904 9.57898 15.7593 9.62502 15.8174 9.68306C15.8754 9.74109 15.9214 9.80999 15.9529 9.88582C15.9843 9.96165 16.0004 10.0429 16.0004 10.125C16.0004 10.2071 15.9843 10.2883 15.9529 10.3642C15.9214 10.44 15.8754 10.5089 15.8174 10.5669C15.7593 10.625 15.6904 10.671 15.6146 10.7024C15.5388 10.7338 15.4575 10.75 15.3754 10.75H8.62543C8.28043 10.75 8.00043 10.47 8.00043 10.125ZM8.62543 13.25C8.45967 13.25 8.3007 13.3158 8.18349 13.4331C8.06628 13.5503 8.00043 13.7092 8.00043 13.875C8.00043 14.0408 8.06628 14.1997 8.18349 14.3169C8.3007 14.4342 8.45967 14.5 8.62543 14.5H13.3754C13.5412 14.5 13.7002 14.4342 13.8174 14.3169C13.9346 14.1997 14.0004 14.0408 14.0004 13.875C14.0004 13.7092 13.9346 13.5503 13.8174 13.4331C13.7002 13.3158 13.5412 13.25 13.3754 13.25H8.62543Z" fill="url(#paint0_linear_1309_12581)"/>
<defs>
<linearGradient id="paint0_linear_1309_12581" x1="2" y1="12.087" x2="22.0004" y2="12.087" gradientUnits="userSpaceOnUse">
<stop stop-color="#E7497D"/>
<stop offset="0.515625" stop-color="#FE5F5E"/>
<stop offset="1" stop-color="#FF8841"/>
</linearGradient>
</defs>
</svg>
