<svg width="16" height="16" viewBox="0 0 16 16" fill="none" xmlns="http://www.w3.org/2000/svg">
<path d="M10.666 2.66699H11.9993C12.353 2.66699 12.6921 2.80747 12.9422 3.05752C13.1922 3.30756 13.3327 3.6467 13.3327 4.00033V13.3337C13.3327 13.6873 13.1922 14.0264 12.9422 14.2765C12.6921 14.5265 12.353 14.667 11.9993 14.667H3.99935C3.64573 14.667 3.30659 14.5265 3.05654 14.2765C2.80649 14.0264 2.66602 13.6873 2.66602 13.3337V4.00033C2.66602 3.6467 2.80649 3.30756 3.05654 3.05752C3.30659 2.80747 3.64573 2.66699 3.99935 2.66699H5.33268" stroke="#F0F0FF" stroke-linecap="round" stroke-linejoin="round"/>
<path d="M10.0007 1.33301H6.00065C5.63246 1.33301 5.33398 1.63148 5.33398 1.99967V3.33301C5.33398 3.7012 5.63246 3.99967 6.00065 3.99967H10.0007C10.3688 3.99967 10.6673 3.7012 10.6673 3.33301V1.99967C10.6673 1.63148 10.3688 1.33301 10.0007 1.33301Z" stroke="#F0F0FF" stroke-linecap="round" stroke-linejoin="round"/>
</svg>
