<svg width="16" height="16" viewBox="0 0 16 16" fill="none" xmlns="http://www.w3.org/2000/svg">
<g clip-path="url(#clip0_1304_12566)">
<path d="M8 6.40039C9.65685 6.40039 11 5.05724 11 3.40039C11 1.74354 9.65685 0.400391 8 0.400391C6.34315 0.400391 5 1.74354 5 3.40039C5 5.05724 6.34315 6.40039 8 6.40039Z" stroke="#F0F0FF" stroke-linecap="round" stroke-linejoin="round"/>
<path d="M14.5 12C14.5 12.2717 14.3876 12.5123 14.1219 12.7432C13.843 12.9856 13.4059 13.2043 12.8064 13.3837C11.6094 13.742 9.91676 13.9 8 13.9C6.08324 13.9 4.39065 13.742 3.1936 13.3837C2.59407 13.2043 2.15703 12.9856 1.87808 12.7432C1.61238 12.5123 1.5 12.2717 1.5 12C1.5 11.7049 1.63318 11.3391 1.94556 10.9354C2.25507 10.5353 2.7181 10.1285 3.31219 9.76316C4.50017 9.03252 6.15949 8.5 8 8.5C9.84051 8.5 11.4998 9.03252 12.6878 9.76316C13.2819 10.1285 13.7449 10.5353 14.0544 10.9354C14.3668 11.3391 14.5 11.7049 14.5 12Z" stroke="#F0F0FF"/>
</g>
<defs>
<clipPath id="clip0_1304_12566">
<rect width="16" height="16" fill="white"/>
</clipPath>
</defs>
</svg>
