<svg width="70" height="34" viewBox="0 0 70 34" fill="none" xmlns="http://www.w3.org/2000/svg">
<path d="M34.8673 17.7371H32.8008V4.1123H34.8673V17.7371Z" fill="#4E0C22"/>
<path d="M29.8509 8.04395V17.7372H28.231L27.9508 16.4325H27.8369C27.6326 16.7652 27.3729 17.0425 27.0576 17.2643C26.7424 17.4803 26.3922 17.6408 26.0069 17.7459C25.6216 17.8568 25.2159 17.9123 24.7898 17.9123C24.0601 17.9123 23.4355 17.7897 22.9159 17.5445C22.4022 17.2935 22.0082 16.9082 21.7338 16.3887C21.4594 15.8691 21.3223 15.1978 21.3223 14.3747V8.04395H23.3887V13.9895C23.3887 14.7425 23.5405 15.3058 23.8441 15.6794C24.1535 16.053 24.6321 16.2398 25.2801 16.2398C25.9047 16.2398 26.4009 16.1114 26.7687 15.8546C27.1364 15.5977 27.3962 15.2183 27.548 14.7162C27.7056 14.2142 27.7844 13.5984 27.7844 12.8687V8.04395H29.8509Z" fill="#4E0C22"/>
<path d="M19.037 12.8689C19.037 13.6745 18.932 14.3896 18.7218 15.0142C18.5117 15.6389 18.2052 16.1672 17.8024 16.5991C17.3996 17.0253 16.9151 17.3522 16.3489 17.5798C15.7826 17.8017 15.1434 17.9126 14.4312 17.9126C13.7658 17.9126 13.1557 17.8017 12.6012 17.5798C12.0466 17.3522 11.565 17.0253 11.1564 16.5991C10.7536 16.1672 10.4413 15.6389 10.2195 15.0142C9.99763 14.3896 9.88672 13.6745 9.88672 12.8689C9.88672 11.8007 10.0706 10.8959 10.4384 10.1545C10.812 9.4073 11.3432 8.83814 12.032 8.44702C12.7208 8.05591 13.541 7.86035 14.4925 7.86035C15.3857 7.86035 16.1737 8.05591 16.8567 8.44702C17.5397 8.83814 18.0738 9.4073 18.4591 10.1545C18.8444 10.9017 19.037 11.8065 19.037 12.8689ZM12.0057 12.8689C12.0057 13.5753 12.0904 14.1795 12.2597 14.6815C12.4348 15.1835 12.7033 15.5688 13.0653 15.8373C13.4272 16.1 13.8942 16.2314 14.4663 16.2314C15.0383 16.2314 15.5053 16.1 15.8673 15.8373C16.2292 15.5688 16.4948 15.1835 16.6641 14.6815C16.8334 14.1795 16.918 13.5753 16.918 12.8689C16.918 12.1626 16.8334 11.5643 16.6641 11.0739C16.4948 10.5777 16.2292 10.2012 15.8673 9.94435C15.5053 9.68166 15.0354 9.55032 14.4575 9.55032C13.6052 9.55032 12.9835 9.83635 12.5924 10.4084C12.2013 10.9805 12.0057 11.8007 12.0057 12.8689Z" fill="#4E0C22"/>
<path d="M8.19589 14.2525C8.19589 15.0114 8.00908 15.6652 7.63548 16.2139C7.26772 16.7627 6.7365 17.183 6.04184 17.4748C5.35301 17.7667 4.52992 17.9127 3.57257 17.9127C3.10556 17.9127 2.65899 17.8864 2.23285 17.8338C1.80671 17.7813 1.40392 17.7054 1.02449 17.6062C0.650884 17.5011 0.309389 17.3756 0 17.2297V15.2507C0.51954 15.4784 1.10037 15.6856 1.7425 15.8724C2.38463 16.0534 3.03843 16.1439 3.70391 16.1439C4.2468 16.1439 4.69629 16.0738 5.05238 15.9337C5.4143 15.7878 5.68283 15.5835 5.85796 15.3208C6.03308 15.0523 6.12065 14.74 6.12065 14.3839C6.12065 14.0044 6.01849 13.6834 5.81418 13.4207C5.60986 13.158 5.30047 12.9187 4.88601 12.7027C4.47738 12.4808 3.96368 12.2444 3.3449 11.9934C2.9246 11.8241 2.52181 11.6315 2.13653 11.4155C1.7571 11.1995 1.41852 10.9456 1.1208 10.6537C0.823091 10.3618 0.586671 10.0174 0.411546 9.62045C0.242257 9.21766 0.157613 8.74482 0.157613 8.20193C0.157613 7.47808 0.32982 6.8593 0.674234 6.3456C1.02449 5.8319 1.51484 5.43786 2.14529 5.1635C2.78158 4.88913 3.52295 4.75195 4.36939 4.75195C5.0407 4.75195 5.67116 4.822 6.26075 4.9621C6.85617 5.1022 7.43993 5.30068 8.012 5.55753L7.34653 7.2475C6.82115 7.03151 6.31036 6.8593 5.81418 6.73087C5.32382 6.60245 4.8218 6.53824 4.30809 6.53824C3.86444 6.53824 3.48792 6.60537 3.17853 6.73963C2.86914 6.87389 2.63272 7.06361 2.46927 7.30879C2.31166 7.54813 2.23285 7.83417 2.23285 8.16691C2.23285 8.54051 2.32333 8.85573 2.5043 9.11259C2.6911 9.3636 2.97714 9.59418 3.36241 9.80433C3.75353 10.0145 4.25556 10.248 4.8685 10.5048C5.57484 10.7967 6.17318 11.1032 6.66354 11.4242C7.15972 11.7453 7.53916 12.1306 7.80185 12.5801C8.06454 13.0237 8.19589 13.5812 8.19589 14.2525Z" fill="#4E0C22"/>
<path d="M65.4277 6.08515L60.7848 6.65956L60.7848 5.51074L65.4277 6.08515Z" fill="#656565"/>
<line x1="46.7227" y1="24.4355" x2="46.7227" y2="33.2792" stroke="#656565" stroke-width="1.5"/>
<line x1="48.0488" y1="24.4355" x2="48.0488" y2="33.2792" stroke="#656565" stroke-width="1.5"/>
<path d="M46.2039 24.9298C36.6959 24.9298 31.5034 18.4831 29.6113 14.5385C38.8971 14.5385 40.7428 16.0254 46.6461 6.97607C52.5494 -2.07331 59.6418 0.16767 61.6694 6.97606C63.697 13.7845 57.1023 24.9298 46.2039 24.9298Z" fill="url(#paint0_radial_1039_2413)" stroke="url(#paint1_linear_1039_2413)"/>
<path d="M48.3394 20.4555C44.4493 20.4555 42.3249 17.8348 41.5508 16.2312C45.3499 16.2312 45.9241 16.8357 48.3394 13.1569C50.7546 9.47817 53.8373 10.3892 54.6669 13.1569C55.4964 15.9247 52.7983 20.4555 48.3394 20.4555Z" fill="url(#paint2_radial_1039_2413)"/>
<circle opacity="0.5" cx="57.4683" cy="5.86385" r="0.884361" fill="#4E0C22"/>
<line x1="44.2051" y1="32.5293" x2="53.4909" y2="32.5293" stroke="#656565" stroke-width="1.5"/>
<path d="M69.9997 30.5125C69.9997 31.1487 69.845 31.6858 69.5356 32.1236C69.2263 32.5614 68.7738 32.8942 68.1784 33.1218C67.5888 33.3436 66.865 33.4546 66.0069 33.4546C65.3297 33.4546 64.7459 33.4049 64.2556 33.3057C63.7711 33.2123 63.3128 33.0664 62.8809 32.8679V31.0904C63.342 31.3064 63.8586 31.4932 64.4307 31.6508C65.0086 31.8084 65.5544 31.8872 66.0681 31.8872C66.7453 31.8872 67.2327 31.7821 67.5304 31.572C67.8282 31.356 67.977 31.0699 67.977 30.7138C67.977 30.5037 67.9157 30.3169 67.7931 30.1534C67.6764 29.9842 67.4546 29.8119 67.1277 29.6368C66.8066 29.4559 66.3338 29.2399 65.7091 28.9889C65.0962 28.7437 64.5796 28.4985 64.1593 28.2533C63.739 28.0082 63.4208 27.7134 63.2048 27.3689C62.9889 27.0187 62.8809 26.5721 62.8809 26.0292C62.8809 25.1711 63.2194 24.5202 63.8966 24.0766C64.5796 23.6271 65.4815 23.4023 66.6023 23.4023C67.1977 23.4023 67.7581 23.4636 68.2835 23.5862C68.8147 23.703 69.3342 23.8752 69.8421 24.1028L69.1941 25.6527C68.7563 25.4601 68.3156 25.3025 67.8719 25.1799C67.4341 25.0514 66.9876 24.9872 66.5322 24.9872C66.001 24.9872 65.5953 25.069 65.3151 25.2324C65.0407 25.3959 64.9036 25.6294 64.9036 25.9329C64.9036 26.1606 64.9707 26.3532 65.105 26.5108C65.2392 26.6684 65.4698 26.8261 65.7967 26.9837C66.1294 27.1413 66.5906 27.3368 67.1802 27.5703C67.7581 27.7922 68.2572 28.0257 68.6775 28.2708C69.1037 28.5102 69.4306 28.805 69.6582 29.1552C69.8859 29.5055 69.9997 29.9579 69.9997 30.5125Z" fill="#4E0C22"/>
<path d="M57.0147 23.4033C57.8786 23.4033 58.62 23.5814 59.2388 23.9375C59.8575 24.2935 60.3333 24.7985 60.666 25.4523C60.9988 26.1061 61.1651 26.8883 61.1651 27.799V28.9023H54.6943C54.7176 29.8421 54.9686 30.566 55.4473 31.0738C55.9318 31.5817 56.609 31.8356 57.4788 31.8356C58.0975 31.8356 58.6521 31.7773 59.1424 31.6605C59.6386 31.5379 60.1494 31.3599 60.6748 31.1264V32.7988C60.1903 33.0265 59.697 33.1929 59.195 33.2979C58.693 33.403 58.0917 33.4555 57.3912 33.4555C56.4397 33.4555 55.602 33.2717 54.8781 32.9039C54.1601 32.5303 53.5968 31.9757 53.1882 31.2402C52.7854 30.5047 52.584 29.5911 52.584 28.4995C52.584 27.4137 52.7679 26.4914 53.1356 25.7325C53.5034 24.9736 54.02 24.3957 54.6855 23.9987C55.351 23.6018 56.1274 23.4033 57.0147 23.4033ZM57.0147 24.9532C56.3667 24.9532 55.8413 25.1633 55.4385 25.5836C55.0416 26.0039 54.8081 26.6198 54.738 27.4312H59.1512C59.1454 26.9467 59.0636 26.5176 58.906 26.144C58.7542 25.7704 58.5207 25.4786 58.2055 25.2684C57.8961 25.0583 57.4992 24.9532 57.0147 24.9532Z" fill="#4E0C22"/>
<path d="M49.6678 31.7913C49.9364 31.7913 50.202 31.768 50.4647 31.7213C50.7274 31.6687 50.9667 31.6074 51.1827 31.5374V33.096C50.955 33.1952 50.6602 33.2799 50.2983 33.3499C49.9364 33.42 49.5599 33.455 49.1687 33.455C48.62 33.455 48.1267 33.3645 47.6889 33.1836C47.2511 32.9968 46.9038 32.6786 46.6469 32.2291C46.3901 31.7796 46.2617 31.1579 46.2617 30.364V25.154H44.9395V24.2346L46.358 23.5079L47.0322 21.4326H48.3281V23.5867H51.1039V25.154H48.3281V30.3378C48.3281 30.8281 48.4507 31.193 48.6959 31.4323C48.9411 31.6716 49.2651 31.7913 49.6678 31.7913Z" fill="#4E0C22"/>
<path d="M39.4578 23.4023C40.6837 23.4023 41.609 23.6738 42.2336 24.2167C42.864 24.7596 43.1793 25.606 43.1793 26.756V33.2794H41.717L41.3229 31.9047H41.2529C40.9785 32.255 40.6954 32.5439 40.4035 32.7716C40.1116 32.9992 39.7731 33.1685 39.3878 33.2794C39.0083 33.3962 38.5443 33.4546 37.9955 33.4546C37.4176 33.4546 36.901 33.3495 36.4457 33.1393C35.9903 32.9233 35.6313 32.5964 35.3686 32.1586C35.106 31.7208 34.9746 31.1663 34.9746 30.4949C34.9746 29.4967 35.3453 28.7466 36.0867 28.2446C36.8339 27.7425 37.9605 27.4653 39.4666 27.4127L41.1478 27.3514V26.8436C41.1478 26.1722 40.9902 25.6936 40.675 25.4075C40.3656 25.1215 39.9278 24.9785 39.3615 24.9785C38.877 24.9785 38.4071 25.0485 37.9517 25.1886C37.4964 25.3287 37.0528 25.5009 36.6208 25.7052L35.9553 24.2517C36.4282 24.0007 36.9652 23.7964 37.5665 23.6388C38.1736 23.4812 38.804 23.4023 39.4578 23.4023ZM41.139 28.6474L39.8869 28.6911C38.8595 28.7262 38.1385 28.9013 37.7241 29.2165C37.3096 29.5317 37.1024 29.9637 37.1024 30.5125C37.1024 30.9911 37.2454 31.3414 37.5314 31.5632C37.8175 31.7792 38.194 31.8872 38.661 31.8872C39.3732 31.8872 39.9628 31.6858 40.4298 31.283C40.9026 30.8744 41.139 30.276 41.139 29.488V28.6474Z" fill="#4E0C22"/>
<path d="M24.8612 33.2792L21.1748 22.5878H21.096C21.1135 22.8271 21.1339 23.154 21.1572 23.5685C21.1806 23.983 21.201 24.4266 21.2185 24.8995C21.2361 25.3723 21.2448 25.8247 21.2448 26.2567V33.2792H19.3359V20.4775H22.2868L25.8331 30.6961H25.8856L29.5545 20.4775H32.4966V33.2792H30.4914V26.1516C30.4914 25.7605 30.4973 25.3373 30.509 24.882C30.5265 24.4266 30.544 23.9946 30.5615 23.586C30.5848 23.1774 30.6024 22.8505 30.614 22.6053H30.544L26.7175 33.2792H24.8612Z" fill="#4E0C22"/>
<defs>
<radialGradient id="paint0_radial_1039_2413" cx="0" cy="0" r="1" gradientUnits="userSpaceOnUse" gradientTransform="translate(53.0469 22.6668) rotate(-118.867) scale(19.6919 784.677)">
<stop stop-color="#BA1A4F"/>
<stop offset="0.306442" stop-color="#D92222"/>
<stop offset="0.637968" stop-color="#FF4443"/>
<stop offset="1" stop-color="#E12A29"/>
</radialGradient>
<linearGradient id="paint1_linear_1039_2413" x1="38.8971" y1="4.09525" x2="53.268" y2="27.973" gradientUnits="userSpaceOnUse">
<stop stop-color="#FF4443"/>
<stop offset="0.560858" stop-color="#DE2800"/>
<stop offset="0.954798" stop-color="#BA1A4F"/>
</linearGradient>
<radialGradient id="paint2_radial_1039_2413" cx="0" cy="0" r="1" gradientUnits="userSpaceOnUse" gradientTransform="translate(49.9522 19.3501) rotate(-111.604) scale(7.34062 293.731)">
<stop offset="0.171875" stop-color="#BA1A4F"/>
<stop offset="0.416667" stop-color="#E12A29"/>
<stop offset="0.932292" stop-color="#FF6C6C"/>
</radialGradient>
</defs>
</svg>
