<svg width="71" height="35" viewBox="0 0 71 35" fill="none" xmlns="http://www.w3.org/2000/svg">
<path d="M34.8673 17.7371H32.8008V4.1123H34.8673V17.7371Z" fill="#4E0C22"/>
<path d="M29.8509 8.04395V17.7372H28.231L27.9508 16.4325H27.8369C27.6326 16.7652 27.3729 17.0425 27.0576 17.2643C26.7424 17.4803 26.3922 17.6408 26.0069 17.7459C25.6216 17.8568 25.2159 17.9123 24.7898 17.9123C24.0601 17.9123 23.4355 17.7897 22.9159 17.5445C22.4022 17.2935 22.0082 16.9082 21.7338 16.3887C21.4594 15.8691 21.3223 15.1978 21.3223 14.3747V8.04395H23.3887V13.9895C23.3887 14.7425 23.5405 15.3058 23.8441 15.6794C24.1535 16.053 24.6321 16.2398 25.2801 16.2398C25.9047 16.2398 26.4009 16.1114 26.7687 15.8546C27.1364 15.5977 27.3962 15.2183 27.548 14.7162C27.7056 14.2142 27.7844 13.5984 27.7844 12.8687V8.04395H29.8509Z" fill="#4E0C22"/>
<path d="M19.037 12.8689C19.037 13.6745 18.932 14.3896 18.7218 15.0142C18.5117 15.6389 18.2052 16.1672 17.8024 16.5991C17.3996 17.0253 16.9151 17.3522 16.3489 17.5798C15.7826 17.8017 15.1434 17.9126 14.4312 17.9126C13.7658 17.9126 13.1557 17.8017 12.6012 17.5798C12.0466 17.3522 11.565 17.0253 11.1564 16.5991C10.7536 16.1672 10.4413 15.6389 10.2195 15.0142C9.99763 14.3896 9.88672 13.6745 9.88672 12.8689C9.88672 11.8007 10.0706 10.8959 10.4384 10.1545C10.812 9.4073 11.3432 8.83814 12.032 8.44702C12.7208 8.05591 13.541 7.86035 14.4925 7.86035C15.3857 7.86035 16.1737 8.05591 16.8567 8.44702C17.5397 8.83814 18.0738 9.4073 18.4591 10.1545C18.8444 10.9017 19.037 11.8065 19.037 12.8689ZM12.0057 12.8689C12.0057 13.5753 12.0904 14.1795 12.2597 14.6815C12.4348 15.1835 12.7033 15.5688 13.0653 15.8373C13.4272 16.1 13.8942 16.2314 14.4663 16.2314C15.0383 16.2314 15.5053 16.1 15.8673 15.8373C16.2292 15.5688 16.4948 15.1835 16.6641 14.6815C16.8334 14.1795 16.918 13.5753 16.918 12.8689C16.918 12.1626 16.8334 11.5643 16.6641 11.0739C16.4948 10.5777 16.2292 10.2012 15.8673 9.94435C15.5053 9.68166 15.0354 9.55032 14.4575 9.55032C13.6052 9.55032 12.9835 9.83635 12.5924 10.4084C12.2013 10.9805 12.0057 11.8007 12.0057 12.8689Z" fill="#4E0C22"/>
<path d="M8.19589 14.2525C8.19589 15.0114 8.00908 15.6652 7.63548 16.2139C7.26772 16.7627 6.7365 17.183 6.04184 17.4748C5.35301 17.7667 4.52992 17.9127 3.57257 17.9127C3.10556 17.9127 2.65899 17.8864 2.23285 17.8338C1.80671 17.7813 1.40392 17.7054 1.02449 17.6062C0.650884 17.5011 0.309389 17.3756 0 17.2297V15.2507C0.51954 15.4784 1.10037 15.6856 1.7425 15.8724C2.38463 16.0534 3.03843 16.1439 3.70391 16.1439C4.2468 16.1439 4.69629 16.0738 5.05238 15.9337C5.4143 15.7878 5.68283 15.5835 5.85796 15.3208C6.03308 15.0523 6.12065 14.74 6.12065 14.3839C6.12065 14.0044 6.01849 13.6834 5.81418 13.4207C5.60986 13.158 5.30047 12.9187 4.88601 12.7027C4.47738 12.4808 3.96368 12.2444 3.3449 11.9934C2.9246 11.8241 2.52181 11.6315 2.13653 11.4155C1.7571 11.1995 1.41852 10.9456 1.1208 10.6537C0.823091 10.3618 0.586671 10.0174 0.411546 9.62045C0.242257 9.21766 0.157613 8.74482 0.157613 8.20193C0.157613 7.47808 0.32982 6.8593 0.674234 6.3456C1.02449 5.8319 1.51484 5.43786 2.14529 5.1635C2.78158 4.88913 3.52295 4.75195 4.36939 4.75195C5.0407 4.75195 5.67116 4.822 6.26075 4.9621C6.85617 5.1022 7.43993 5.30068 8.012 5.55753L7.34653 7.2475C6.82115 7.03151 6.31036 6.8593 5.81418 6.73087C5.32382 6.60245 4.8218 6.53824 4.30809 6.53824C3.86444 6.53824 3.48792 6.60537 3.17853 6.73963C2.86914 6.87389 2.63272 7.06361 2.46927 7.30879C2.31166 7.54813 2.23285 7.83417 2.23285 8.16691C2.23285 8.54051 2.32333 8.85573 2.5043 9.11259C2.6911 9.3636 2.97714 9.59418 3.36241 9.80433C3.75353 10.0145 4.25556 10.248 4.8685 10.5048C5.57484 10.7967 6.17318 11.1032 6.66354 11.4242C7.15972 11.7453 7.53916 12.1306 7.80185 12.5801C8.06454 13.0237 8.19589 13.5812 8.19589 14.2525Z" fill="#4E0C22"/>
<path d="M65.4277 6.08515L60.7848 6.65956L60.7848 5.51074L65.4277 6.08515Z" fill="#656565"/>
<line x1="46.7227" y1="24.4355" x2="46.7227" y2="33.2792" stroke="#656565" stroke-width="1.5"/>
<line x1="48.0488" y1="24.4355" x2="48.0488" y2="33.2792" stroke="#656565" stroke-width="1.5"/>
<path d="M46.2039 24.9298C36.6959 24.9298 31.5034 18.4831 29.6113 14.5385C38.8971 14.5385 40.7428 16.0254 46.6461 6.97607C52.5494 -2.07331 59.6418 0.16767 61.6694 6.97606C63.697 13.7845 57.1023 24.9298 46.2039 24.9298Z" fill="url(#paint0_radial_1039_2412)" stroke="url(#paint1_linear_1039_2412)"/>
<path d="M48.3394 20.4555C44.4493 20.4555 42.3249 17.8348 41.5508 16.2312C45.3499 16.2312 45.9241 16.8357 48.3394 13.1569C50.7546 9.47817 53.8373 10.3892 54.6669 13.1569C55.4964 15.9247 52.7983 20.4555 48.3394 20.4555Z" fill="url(#paint2_radial_1039_2412)"/>
<circle opacity="0.5" cx="57.4683" cy="5.86385" r="0.884361" fill="#4E0C22"/>
<line x1="44.2051" y1="32.5293" x2="53.4909" y2="32.5293" stroke="#656565" stroke-width="1.5"/>
<path d="M25.2334 34L21.5332 23.2686H21.4541C21.4717 23.5088 21.4922 23.8369 21.5156 24.2529C21.5391 24.6689 21.5596 25.1143 21.5771 25.5889C21.5947 26.0635 21.6035 26.5176 21.6035 26.9512V34H19.6875V21.1504H22.6494L26.209 31.4072H26.2617L29.9443 21.1504H32.8975V34H30.8848V26.8457C30.8848 26.4531 30.8906 26.0283 30.9023 25.5713C30.9199 25.1143 30.9375 24.6807 30.9551 24.2705C30.9785 23.8604 30.9961 23.5322 31.0078 23.2861H30.9375L27.0967 34H25.2334Z" fill="#4E0C22"/>
<path d="M39.8848 24.0859C41.1152 24.0859 42.0439 24.3584 42.6709 24.9033C43.3037 25.4482 43.6201 26.2979 43.6201 27.4521V34H42.1523L41.7568 32.6201H41.6865C41.4111 32.9717 41.127 33.2617 40.834 33.4902C40.541 33.7188 40.2012 33.8887 39.8145 34C39.4336 34.1172 38.9678 34.1758 38.417 34.1758C37.8369 34.1758 37.3184 34.0703 36.8613 33.8594C36.4043 33.6426 36.0439 33.3145 35.7803 32.875C35.5166 32.4355 35.3848 31.8789 35.3848 31.2051C35.3848 30.2031 35.7568 29.4502 36.501 28.9463C37.251 28.4424 38.3818 28.1641 39.8936 28.1113L41.5811 28.0498V27.54C41.5811 26.8662 41.4229 26.3857 41.1064 26.0986C40.7959 25.8115 40.3564 25.668 39.7881 25.668C39.3018 25.668 38.8301 25.7383 38.373 25.8789C37.916 26.0195 37.4707 26.1924 37.0371 26.3975L36.3691 24.9385C36.8438 24.6865 37.3828 24.4814 37.9863 24.3232C38.5957 24.165 39.2285 24.0859 39.8848 24.0859ZM41.5723 29.3506L40.3154 29.3945C39.2842 29.4297 38.5605 29.6055 38.1445 29.9219C37.7285 30.2383 37.5205 30.6719 37.5205 31.2227C37.5205 31.7031 37.6641 32.0547 37.9512 32.2773C38.2383 32.4941 38.6162 32.6025 39.085 32.6025C39.7998 32.6025 40.3916 32.4004 40.8604 31.9961C41.335 31.5859 41.5723 30.9854 41.5723 30.1943V29.3506Z" fill="#4E0C22"/>
<path d="M50.1328 32.5059C50.4023 32.5059 50.6689 32.4824 50.9326 32.4355C51.1963 32.3828 51.4365 32.3213 51.6533 32.251V33.8154C51.4248 33.915 51.1289 34 50.7656 34.0703C50.4023 34.1406 50.0244 34.1758 49.6318 34.1758C49.0811 34.1758 48.5859 34.085 48.1465 33.9033C47.707 33.7158 47.3584 33.3965 47.1006 32.9453C46.8428 32.4941 46.7139 31.8701 46.7139 31.0732V25.8438H45.3867V24.9209L46.8105 24.1914L47.4873 22.1084H48.7881V24.2705H51.5742V25.8438H48.7881V31.0469C48.7881 31.5391 48.9111 31.9053 49.1572 32.1455C49.4033 32.3857 49.7285 32.5059 50.1328 32.5059Z" fill="#4E0C22"/>
<path d="M57.5068 24.0859C58.374 24.0859 59.1182 24.2646 59.7393 24.6221C60.3604 24.9795 60.8379 25.4863 61.1719 26.1426C61.5059 26.7988 61.6729 27.584 61.6729 28.498V29.6055H55.1777C55.2012 30.5488 55.4531 31.2754 55.9336 31.7852C56.4199 32.2949 57.0996 32.5498 57.9727 32.5498C58.5938 32.5498 59.1504 32.4912 59.6426 32.374C60.1406 32.251 60.6533 32.0723 61.1807 31.8379V33.5166C60.6943 33.7451 60.1992 33.9121 59.6953 34.0176C59.1914 34.123 58.5879 34.1758 57.8848 34.1758C56.9297 34.1758 56.0889 33.9912 55.3623 33.6221C54.6416 33.2471 54.0762 32.6904 53.666 31.9521C53.2617 31.2139 53.0596 30.2969 53.0596 29.2012C53.0596 28.1113 53.2441 27.1855 53.6133 26.4238C53.9824 25.6621 54.501 25.082 55.1689 24.6836C55.8369 24.2852 56.6162 24.0859 57.5068 24.0859ZM57.5068 25.6416C56.8564 25.6416 56.3291 25.8525 55.9248 26.2744C55.5264 26.6963 55.292 27.3145 55.2217 28.1289H59.6514C59.6455 27.6426 59.5635 27.2119 59.4053 26.8369C59.2529 26.4619 59.0186 26.1689 58.7021 25.958C58.3916 25.7471 57.9932 25.6416 57.5068 25.6416Z" fill="#4E0C22"/>
<path d="M70.5146 34H63.123V32.7256L68.0361 25.8613H63.4219V24.2705H70.374V25.6768L65.5576 32.4092H70.5146V34Z" fill="#4E0C22"/>
<defs>
<radialGradient id="paint0_radial_1039_2412" cx="0" cy="0" r="1" gradientUnits="userSpaceOnUse" gradientTransform="translate(53.0469 22.6668) rotate(-118.867) scale(19.6919 784.677)">
<stop stop-color="#BA1A4F"/>
<stop offset="0.306442" stop-color="#D92222"/>
<stop offset="0.637968" stop-color="#FF4443"/>
<stop offset="1" stop-color="#E12A29"/>
</radialGradient>
<linearGradient id="paint1_linear_1039_2412" x1="38.8971" y1="4.09525" x2="53.268" y2="27.973" gradientUnits="userSpaceOnUse">
<stop stop-color="#FF4443"/>
<stop offset="0.560858" stop-color="#DE2800"/>
<stop offset="0.954798" stop-color="#BA1A4F"/>
</linearGradient>
<radialGradient id="paint2_radial_1039_2412" cx="0" cy="0" r="1" gradientUnits="userSpaceOnUse" gradientTransform="translate(49.9522 19.3501) rotate(-111.604) scale(7.34062 293.731)">
<stop offset="0.171875" stop-color="#BA1A4F"/>
<stop offset="0.416667" stop-color="#E12A29"/>
<stop offset="0.932292" stop-color="#FF6C6C"/>
</radialGradient>
</defs>
</svg>
