<svg width="70" height="34" viewBox="0 0 70 34" fill="none" xmlns="http://www.w3.org/2000/svg">
<path d="M34.8673 17.7371H32.8008V4.1123H34.8673V17.7371Z" fill="#F4F4F4"/>
<path d="M29.8489 8.04395V17.7372H28.229L27.9488 16.4325H27.835C27.6307 16.7652 27.3709 17.0425 27.0557 17.2643C26.7405 17.4803 26.3902 17.6408 26.0049 17.7459C25.6197 17.8568 25.2139 17.9123 24.7878 17.9123C24.0581 17.9123 23.4335 17.7897 22.914 17.5445C22.4003 17.2935 22.0062 16.9082 21.7319 16.3887C21.4575 15.8691 21.3203 15.1978 21.3203 14.3747V8.04395H23.3868V13.9895C23.3868 14.7425 23.5386 15.3058 23.8421 15.6794C24.1515 16.053 24.6302 16.2398 25.2782 16.2398C25.9028 16.2398 26.399 16.1114 26.7667 15.8546C27.1345 15.5977 27.3943 15.2183 27.546 14.7162C27.7036 14.2142 27.7825 13.5984 27.7825 12.8687V8.04395H29.8489Z" fill="#F4F4F4"/>
<path d="M19.037 12.8689C19.037 13.6745 18.932 14.3896 18.7218 15.0142C18.5117 15.6389 18.2052 16.1672 17.8024 16.5991C17.3996 17.0253 16.9151 17.3522 16.3489 17.5798C15.7826 17.8017 15.1434 17.9126 14.4312 17.9126C13.7658 17.9126 13.1557 17.8017 12.6012 17.5798C12.0466 17.3522 11.565 17.0253 11.1564 16.5991C10.7536 16.1672 10.4413 15.6389 10.2195 15.0142C9.99763 14.3896 9.88672 13.6745 9.88672 12.8689C9.88672 11.8007 10.0706 10.8959 10.4384 10.1545C10.812 9.4073 11.3432 8.83814 12.032 8.44702C12.7208 8.05591 13.541 7.86035 14.4925 7.86035C15.3857 7.86035 16.1737 8.05591 16.8567 8.44702C17.5397 8.83814 18.0738 9.4073 18.4591 10.1545C18.8444 10.9017 19.037 11.8065 19.037 12.8689ZM12.0057 12.8689C12.0057 13.5753 12.0904 14.1795 12.2597 14.6815C12.4348 15.1835 12.7033 15.5688 13.0653 15.8373C13.4272 16.1 13.8942 16.2314 14.4663 16.2314C15.0383 16.2314 15.5053 16.1 15.8673 15.8373C16.2292 15.5688 16.4948 15.1835 16.6641 14.6815C16.8334 14.1795 16.918 13.5753 16.918 12.8689C16.918 12.1626 16.8334 11.5643 16.6641 11.0739C16.4948 10.5777 16.2292 10.2012 15.8673 9.94435C15.5053 9.68166 15.0354 9.55032 14.4575 9.55032C13.6052 9.55032 12.9835 9.83635 12.5924 10.4084C12.2013 10.9805 12.0057 11.8007 12.0057 12.8689Z" fill="#F4F4F4"/>
<path d="M8.19589 14.2525C8.19589 15.0114 8.00908 15.6652 7.63548 16.2139C7.26772 16.7627 6.7365 17.183 6.04184 17.4748C5.35301 17.7667 4.52992 17.9127 3.57257 17.9127C3.10556 17.9127 2.65899 17.8864 2.23285 17.8338C1.80671 17.7813 1.40392 17.7054 1.02449 17.6062C0.650884 17.5011 0.309389 17.3756 0 17.2297V15.2507C0.51954 15.4784 1.10037 15.6856 1.7425 15.8724C2.38463 16.0534 3.03843 16.1439 3.70391 16.1439C4.2468 16.1439 4.69629 16.0738 5.05238 15.9337C5.4143 15.7878 5.68283 15.5835 5.85796 15.3208C6.03308 15.0523 6.12065 14.74 6.12065 14.3839C6.12065 14.0044 6.01849 13.6834 5.81418 13.4207C5.60986 13.158 5.30047 12.9187 4.88601 12.7027C4.47738 12.4808 3.96368 12.2444 3.3449 11.9934C2.9246 11.8241 2.52181 11.6315 2.13653 11.4155C1.7571 11.1995 1.41852 10.9456 1.1208 10.6537C0.823091 10.3618 0.586671 10.0174 0.411546 9.62045C0.242257 9.21766 0.157613 8.74482 0.157613 8.20193C0.157613 7.47808 0.32982 6.8593 0.674234 6.3456C1.02449 5.8319 1.51484 5.43786 2.14529 5.1635C2.78158 4.88913 3.52295 4.75195 4.36939 4.75195C5.0407 4.75195 5.67116 4.822 6.26075 4.9621C6.85617 5.1022 7.43993 5.30068 8.012 5.55753L7.34653 7.2475C6.82115 7.03151 6.31036 6.8593 5.81418 6.73087C5.32382 6.60245 4.8218 6.53824 4.30809 6.53824C3.86444 6.53824 3.48792 6.60537 3.17853 6.73963C2.86914 6.87389 2.63272 7.06361 2.46927 7.30879C2.31166 7.54813 2.23285 7.83417 2.23285 8.16691C2.23285 8.54051 2.32333 8.85573 2.5043 9.11259C2.6911 9.3636 2.97714 9.59418 3.36241 9.80433C3.75353 10.0145 4.25556 10.248 4.8685 10.5048C5.57484 10.7967 6.17318 11.1032 6.66354 11.4242C7.15972 11.7453 7.53916 12.1306 7.80185 12.5801C8.06454 13.0237 8.19589 13.5812 8.19589 14.2525Z" fill="#F4F4F4"/>
<path d="M65.4258 6.08515L60.7829 6.65956L60.7829 5.51074L65.4258 6.08515Z" fill="#656565"/>
<line x1="46.7188" y1="24.4355" x2="46.7188" y2="33.2792" stroke="#656565" stroke-width="1.5"/>
<line x1="48.0469" y1="24.4355" x2="48.0469" y2="33.2792" stroke="#656565" stroke-width="1.5"/>
<path d="M46.2019 24.9298C36.694 24.9298 31.5015 18.4831 29.6094 14.5385C38.8952 14.5385 40.7408 16.0254 46.6441 6.97607C52.5474 -2.07331 59.6399 0.16767 61.6675 6.97606C63.6951 13.7845 57.1004 24.9298 46.2019 24.9298Z" fill="url(#paint0_radial_1141_27443)" stroke="url(#paint1_linear_1141_27443)"/>
<path d="M48.3355 20.4555C44.4454 20.4555 42.321 17.8348 41.5469 16.2312C45.346 16.2312 45.9202 16.8357 48.3355 13.1569C50.7507 9.47817 53.8334 10.3892 54.663 13.1569C55.4925 15.9247 52.7944 20.4555 48.3355 20.4555Z" fill="url(#paint2_radial_1141_27443)"/>
<circle opacity="0.5" cx="57.4664" cy="5.86385" r="0.884361" fill="#4E0C22"/>
<line x1="44.2031" y1="32.5293" x2="53.4889" y2="32.5293" stroke="#656565" stroke-width="1.5"/>
<path d="M70.0017 30.5125C70.0017 31.1487 69.847 31.6858 69.5376 32.1236C69.2282 32.5614 68.7758 32.8942 68.1804 33.1218C67.5908 33.3436 66.8669 33.4546 66.0088 33.4546C65.3317 33.4546 64.7479 33.4049 64.2575 33.3057C63.773 33.2123 63.3148 33.0664 62.8828 32.8679V31.0904C63.344 31.3064 63.8606 31.4932 64.4327 31.6508C65.0106 31.8084 65.5564 31.8872 66.0701 31.8872C66.7473 31.8872 67.2347 31.7821 67.5324 31.572C67.8301 31.356 67.979 31.0699 67.979 30.7138C67.979 30.5037 67.9177 30.3169 67.7951 30.1534C67.6783 29.9842 67.4565 29.8119 67.1296 29.6368C66.8085 29.4559 66.3357 29.2399 65.7111 28.9889C65.0982 28.7437 64.5815 28.4985 64.1612 28.2533C63.7409 28.0082 63.4228 27.7134 63.2068 27.3689C62.9908 27.0187 62.8828 26.5721 62.8828 26.0292C62.8828 25.1711 63.2214 24.5202 63.8985 24.0766C64.5815 23.6271 65.4834 23.4023 66.6042 23.4023C67.1997 23.4023 67.7601 23.4636 68.2854 23.5862C68.8167 23.703 69.3362 23.8752 69.8441 24.1028L69.1961 25.6527C68.7583 25.4601 68.3175 25.3025 67.8739 25.1799C67.4361 25.0514 66.9895 24.9872 66.5342 24.9872C66.003 24.9872 65.5973 25.069 65.3171 25.2324C65.0427 25.3959 64.9055 25.6294 64.9055 25.9329C64.9055 26.1606 64.9726 26.3532 65.1069 26.5108C65.2412 26.6684 65.4718 26.8261 65.7987 26.9837C66.1314 27.1413 66.5926 27.3368 67.1822 27.5703C67.7601 27.7922 68.2592 28.0257 68.6795 28.2708C69.1056 28.5102 69.4325 28.805 69.6602 29.1552C69.8878 29.5055 70.0017 29.9579 70.0017 30.5125Z" fill="#F4F4F4"/>
<path d="M57.0166 23.4033C57.8806 23.4033 58.6219 23.5814 59.2407 23.9375C59.8595 24.2935 60.3353 24.7985 60.668 25.4523C61.0007 26.1061 61.1671 26.8883 61.1671 27.799V28.9023H54.6962C54.7196 29.8421 54.9706 30.566 55.4492 31.0738C55.9338 31.5817 56.6109 31.8356 57.4807 31.8356C58.0995 31.8356 58.654 31.7773 59.1444 31.6605C59.6406 31.5379 60.1514 31.3599 60.6767 31.1264V32.7988C60.1922 33.0265 59.699 33.1929 59.1969 33.2979C58.6949 33.403 58.0936 33.4555 57.3931 33.4555C56.4416 33.4555 55.6039 33.2717 54.8801 32.9039C54.1621 32.5303 53.5987 31.9757 53.1901 31.2402C52.7873 30.5047 52.5859 29.5911 52.5859 28.4995C52.5859 27.4137 52.7698 26.4914 53.1376 25.7325C53.5053 24.9736 54.022 24.3957 54.6874 23.9987C55.3529 23.6018 56.1293 23.4033 57.0166 23.4033ZM57.0166 24.9532C56.3687 24.9532 55.8433 25.1633 55.4405 25.5836C55.0435 26.0039 54.81 26.6198 54.74 27.4312H59.1532C59.1473 26.9467 59.0656 26.5176 58.908 26.144C58.7562 25.7704 58.5227 25.4786 58.2075 25.2684C57.8981 25.0583 57.5011 24.9532 57.0166 24.9532Z" fill="#F4F4F4"/>
<path d="M49.6659 31.7913C49.9344 31.7913 50.2 31.768 50.4627 31.7213C50.7254 31.6687 50.9647 31.6074 51.1807 31.5374V33.096C50.9531 33.1952 50.6583 33.2799 50.2963 33.3499C49.9344 33.42 49.5579 33.455 49.1668 33.455C48.6181 33.455 48.1248 33.3645 47.687 33.1836C47.2492 32.9968 46.9018 32.6786 46.645 32.2291C46.3881 31.7796 46.2597 31.1579 46.2597 30.364V25.154H44.9375V24.2346L46.356 23.5079L47.0303 21.4326H48.3262V23.5867H51.1019V25.154H48.3262V30.3378C48.3262 30.8281 48.4488 31.193 48.6939 31.4323C48.9391 31.6716 49.2631 31.7913 49.6659 31.7913Z" fill="#F4F4F4"/>
<path d="M39.4598 23.4023C40.6857 23.4023 41.6109 23.6738 42.2355 24.2167C42.866 24.7596 43.1812 25.606 43.1812 26.756V33.2794H41.7189L41.3249 31.9047H41.2548C40.9805 32.255 40.6973 32.5439 40.4055 32.7716C40.1136 32.9992 39.775 33.1685 39.3897 33.2794C39.0103 33.3962 38.5462 33.4546 37.9975 33.4546C37.4196 33.4546 36.9029 33.3495 36.4476 33.1393C35.9923 32.9233 35.6333 32.5964 35.3706 32.1586C35.1079 31.7208 34.9766 31.1663 34.9766 30.4949C34.9766 29.4967 35.3472 28.7466 36.0886 28.2446C36.8358 27.7425 37.9625 27.4653 39.4685 27.4127L41.1497 27.3514V26.8436C41.1497 26.1722 40.9921 25.6936 40.6769 25.4075C40.3675 25.1215 39.9297 24.9785 39.3635 24.9785C38.8789 24.9785 38.409 25.0485 37.9537 25.1886C37.4984 25.3287 37.0547 25.5009 36.6227 25.7052L35.9573 24.2517C36.4301 24.0007 36.9672 23.7964 37.5684 23.6388C38.1755 23.4812 38.806 23.4023 39.4598 23.4023ZM41.141 28.6474L39.8888 28.6911C38.8614 28.7262 38.1405 28.9013 37.726 29.2165C37.3116 29.5317 37.1043 29.9637 37.1043 30.5125C37.1043 30.9911 37.2474 31.3414 37.5334 31.5632C37.8194 31.7792 38.196 31.8872 38.663 31.8872C39.3751 31.8872 39.9647 31.6858 40.4317 31.283C40.9046 30.8744 41.141 30.276 41.141 29.488V28.6474Z" fill="#F4F4F4"/>
<path d="M24.8612 33.2792L21.1748 22.5878H21.096C21.1135 22.8271 21.1339 23.154 21.1572 23.5685C21.1806 23.983 21.201 24.4266 21.2185 24.8995C21.2361 25.3723 21.2448 25.8247 21.2448 26.2567V33.2792H19.3359V20.4775H22.2868L25.8331 30.6961H25.8856L29.5545 20.4775H32.4966V33.2792H30.4914V26.1516C30.4914 25.7605 30.4973 25.3373 30.509 24.882C30.5265 24.4266 30.544 23.9946 30.5615 23.586C30.5848 23.1774 30.6024 22.8505 30.614 22.6053H30.544L26.7175 33.2792H24.8612Z" fill="#F4F4F4"/>
<defs>
<radialGradient id="paint0_radial_1141_27443" cx="0" cy="0" r="1" gradientUnits="userSpaceOnUse" gradientTransform="translate(53.045 22.6668) rotate(-118.867) scale(19.6919 784.677)">
<stop stop-color="#BA1A4F"/>
<stop offset="0.306442" stop-color="#D92222"/>
<stop offset="0.637968" stop-color="#FF4443"/>
<stop offset="1" stop-color="#E12A29"/>
</radialGradient>
<linearGradient id="paint1_linear_1141_27443" x1="38.8952" y1="4.09525" x2="53.2661" y2="27.973" gradientUnits="userSpaceOnUse">
<stop stop-color="#FF4443"/>
<stop offset="0.560858" stop-color="#DE2800"/>
<stop offset="0.954798" stop-color="#BA1A4F"/>
</linearGradient>
<radialGradient id="paint2_radial_1141_27443" cx="0" cy="0" r="1" gradientUnits="userSpaceOnUse" gradientTransform="translate(49.9483 19.3501) rotate(-111.604) scale(7.34062 293.731)">
<stop offset="0.171875" stop-color="#BA1A4F"/>
<stop offset="0.416667" stop-color="#E12A29"/>
<stop offset="0.932292" stop-color="#FF6C6C"/>
</radialGradient>
</defs>
</svg>
