<svg width="25" height="24" viewBox="0 0 25 24" fill="none" xmlns="http://www.w3.org/2000/svg">
<path d="M9.28217 14.1717C10.2921 13.8772 14.2899 14.3821 15.2156 15.0554M6.54688 4.91382C7.09393 4.53509 7.72515 4.36676 8.39846 4.45093C9.07176 4.45093 9.70298 4.70342 10.1659 5.16631M18.6242 6.59708C17.488 6.30251 16.3098 6.26043 15.1736 6.47084" stroke="#FF3F57" stroke-width="0.8" stroke-linecap="round" stroke-linejoin="round"/>
<path d="M14.7935 20.0209C19.9695 18.6322 22.9993 13.3299 21.6106 8.15393C20.222 2.97791 14.9197 -0.0519536 9.74369 1.33673C5.53554 2.47293 2.58984 6.30234 2.58984 10.6788C2.58984 12.6146 3.17898 14.5503 4.2731 16.1494" stroke="#FF3F57" stroke-width="0.8" stroke-linecap="round" stroke-linejoin="round"/>
<path d="M10.1655 8.36401C10.1655 9.07939 9.61845 9.62645 8.90307 9.62645C8.18768 9.62645 7.64062 9.07939 7.64062 8.36401C7.64062 7.64862 8.18768 7.10156 8.90307 7.10156C9.61845 7.10156 10.1655 7.64862 10.1655 8.36401ZM17.3194 9.62645C17.3194 10.3418 16.7723 10.8889 16.0569 10.8889C15.3415 10.8889 14.7945 10.3418 14.7945 9.62645C14.7945 8.91106 15.3415 8.36401 16.0569 8.36401C16.7723 8.36401 17.3194 8.91106 17.3194 9.62645Z" fill="#FF3F57"/>
<path d="M5.40824 19.3049C4.98742 19.9782 4.90326 20.8619 5.19783 21.6194C5.66072 23.0081 6.88109 23.8076 8.22769 23.3868L10.2897 22.7977L10.7105 22.6714C11.0471 22.5873 11.2576 22.2085 11.1734 21.914C11.0892 21.7036 10.9209 21.5352 10.6684 21.4932L11.1734 21.3669C11.51 21.2828 11.7204 20.904 11.6363 20.6095C11.5521 20.399 11.3838 20.1886 11.1313 20.1466L11.6363 19.9782C11.9729 19.8941 12.1833 19.5153 12.0992 19.2208C12.0571 19.0104 11.8888 18.842 11.6784 18.7999L14.3716 18.0004C14.7082 17.9162 14.9186 17.5375 14.8345 17.2429C14.7503 16.9484 14.3716 16.6959 14.077 16.78L9.7847 18.0425L7.63855 18.6737L7.89104 15.3914C7.93312 15.0126 7.25982 14.8864 7.00733 15.4755L5.40824 19.3049Z" stroke="#FF3F57" stroke-width="0.8" stroke-linecap="round" stroke-linejoin="round"/>
</svg>
