<svg width="25" height="24" viewBox="0 0 25 24" fill="none" xmlns="http://www.w3.org/2000/svg">
<path d="M21.0477 4.54219C20.559 4.05327 19.9787 3.66542 19.3401 3.40081C18.7015 3.1362 18.017 3 17.3257 3C16.6345 3 15.95 3.1362 15.3113 3.40081C14.6727 3.66542 14.0925 4.05327 13.6038 4.54219L12.5896 5.55639L11.5754 4.54219C10.5883 3.55507 9.24945 3.00051 7.85345 3.00051C6.45746 3.00051 5.11864 3.55507 4.13152 4.54219C3.1444 5.52931 2.58984 6.86812 2.58984 8.26412C2.58984 9.66012 3.1444 10.9989 4.13152 11.9861L5.14572 13.0003L12.5896 20.4441L20.0335 13.0003L21.0477 11.9861C21.5366 11.4974 21.9244 10.9171 22.189 10.2785C22.4536 9.63989 22.5898 8.95539 22.5898 8.26412C22.5898 7.57285 22.4536 6.88835 22.189 6.24973C21.9244 5.6111 21.5366 5.03088 21.0477 4.54219Z" stroke="#FF3F57" stroke-linecap="round" stroke-linejoin="round"/>
</svg>
