<svg width="25" height="24" viewBox="0 0 25 24" fill="none" xmlns="http://www.w3.org/2000/svg">
<g clip-path="url(#clip0_1093_25427)">
<path d="M14.4367 16.0959L8.25273 9.91191C7.85484 9.51402 7.18141 9.64036 6.95479 10.1554L2.09593 21.1982C1.80207 21.8661 2.48249 22.5466 3.15037 22.2527L14.1932 17.3938C14.7083 17.1672 14.8346 16.4938 14.4367 16.0959Z" stroke="#FF3F57" stroke-width="0.8" stroke-linejoin="round"/>
<path d="M3.80859 17.4082L6.94375 20.5434" stroke="#FF3F57" stroke-width="0.8" stroke-linejoin="round"/>
<path d="M3.80859 17.4082L6.94375 20.5434" stroke="#FF3F57" stroke-width="0.8" stroke-linejoin="round"/>
<path d="M3.15234 18.999L5.34695 21.1936" stroke="#FF3F57" stroke-width="0.8" stroke-linejoin="round"/>
<path d="M5.25781 14.3848L9.96054 19.0875" stroke="#FF3F57" stroke-width="0.8" stroke-linejoin="round"/>
<path d="M6.12891 12.2646L10.5181 16.6539" stroke="#FF3F57" stroke-width="0.8" stroke-linecap="round" stroke-linejoin="round"/>
<path d="M11.5836 17.1556C11.4274 16.9994 11.1741 16.9994 11.0179 17.1556C10.8617 17.3118 10.8617 17.5651 11.0179 17.7213L11.5836 17.1556ZM12.3674 17.9394L11.5836 17.1556L11.0179 17.7213L11.8017 18.5051L12.3674 17.9394Z" fill="#FF3F57"/>
<path d="M19.1674 6.81075C18.6704 6.65598 17.6359 6.65615 17.4739 7.89491C17.312 9.13367 16.1646 9.20611 15.6111 9.08749" stroke="#FF3F57" stroke-width="0.8" stroke-linecap="round" stroke-linejoin="round"/>
<path d="M17.4634 2.79944C16.9492 2.88017 16.0212 3.33734 16.4231 4.52021C16.8251 5.70309 15.8278 6.27498 15.2788 6.41307" stroke="#FF3F57" stroke-width="0.8" stroke-linecap="round" stroke-linejoin="round"/>
<path d="M11.5256 13.1916C11.4809 12.673 11.8893 11.4759 13.134 11.5831C14.3787 11.6903 14.5087 10.7717 14.5114 10.2057" stroke="#FF3F57" stroke-width="0.8" stroke-linecap="round" stroke-linejoin="round"/>
<path d="M11.1428 5.35456C11.9291 6.00267 12.3586 9.36402 10.0255 11.6972" stroke="#FF3F57" stroke-width="0.8" stroke-linecap="round" stroke-linejoin="round"/>
<path d="M7.85754 6.52552C8.53439 6.79043 9.71002 8.74775 8.84215 10.5271" stroke="#FF3F57" stroke-width="0.8" stroke-linecap="round" stroke-linejoin="round"/>
<path d="M18.8827 17.028C18.667 16.2548 16.5254 14.8025 14.301 15.6393" stroke="#FF3F57" stroke-width="0.8" stroke-linecap="round" stroke-linejoin="round"/>
<path d="M19.7318 13.9396C18.8787 12.9484 14.9758 11.9773 12.6427 14.3105" stroke="#FF3F57" stroke-width="0.8" stroke-linecap="round" stroke-linejoin="round"/>
<path d="M22.0652 12.5347C21.8091 12.7907 21.394 12.7907 21.1379 12.5347C20.8819 12.2786 20.8819 11.8635 21.1379 11.6074C21.394 11.3514 21.8091 11.3514 22.0652 11.6074C22.3212 11.8635 22.3212 12.2786 22.0652 12.5347Z" stroke="#FF3F57" stroke-width="0.8"/>
<mask id="path-16-inside-1_1093_25427" fill="white">
<ellipse cx="17.8672" cy="10.9517" rx="0.791746" ry="0.791746" transform="rotate(45 17.8672 10.9517)"/>
</mask>
<path d="M17.8614 10.9459C17.8611 10.9461 17.8624 10.945 17.8645 10.9441C17.8661 10.9435 17.867 10.9435 17.8672 10.9435C17.8674 10.9435 17.8683 10.9435 17.8699 10.9441C17.872 10.945 17.8733 10.9461 17.873 10.9459L16.7417 12.0773C17.3633 12.6989 18.3711 12.6989 18.9927 12.0773L17.8614 10.9459ZM17.873 10.9459C17.8728 10.9457 17.8739 10.9469 17.8748 10.949C17.8754 10.9506 17.8754 10.9515 17.8754 10.9517C17.8754 10.952 17.8754 10.9529 17.8748 10.9544C17.8739 10.9565 17.8728 10.9578 17.873 10.9576L16.7417 9.82619C16.12 10.4478 16.12 11.4556 16.7417 12.0773L17.873 10.9459ZM17.873 10.9576C17.8733 10.9573 17.872 10.9585 17.8699 10.9593C17.8683 10.96 17.8674 10.96 17.8672 10.96C17.867 10.96 17.8661 10.96 17.8645 10.9593C17.8624 10.9585 17.8611 10.9573 17.8614 10.9576L18.9927 9.82619C18.3711 9.20458 17.3633 9.20458 16.7417 9.82619L17.873 10.9576ZM17.8614 10.9576C17.8616 10.9578 17.8605 10.9565 17.8596 10.9544C17.859 10.9529 17.8589 10.952 17.8589 10.9517C17.8589 10.9515 17.859 10.9506 17.8596 10.949C17.8605 10.9469 17.8616 10.9457 17.8614 10.9459L18.9927 12.0773C19.6143 11.4556 19.6143 10.4478 18.9927 9.82619L17.8614 10.9576Z" fill="#FF3F57" mask="url(#path-16-inside-1_1093_25427)"/>
<mask id="path-18-inside-2_1093_25427" fill="white">
<ellipse cx="13.7578" cy="8.33845" rx="0.791746" ry="0.791746" transform="rotate(45 13.7578 8.33845)"/>
</mask>
<path d="M13.752 8.33261C13.7517 8.33285 13.753 8.33171 13.7551 8.33086C13.7567 8.33022 13.7576 8.33019 13.7578 8.33019C13.758 8.33019 13.7589 8.33022 13.7605 8.33086C13.7626 8.33171 13.7639 8.33285 13.7636 8.33261L12.6323 9.46398C13.2539 10.0856 14.2617 10.0856 14.8833 9.46398L13.752 8.33261ZM13.7636 8.33261C13.7634 8.33237 13.7645 8.33364 13.7654 8.33575C13.766 8.33732 13.7661 8.33821 13.7661 8.33845C13.7661 8.33868 13.766 8.33957 13.7654 8.34115C13.7645 8.34326 13.7634 8.34452 13.7636 8.34428L12.6323 7.21291C12.0107 7.83453 12.0107 8.84237 12.6323 9.46398L13.7636 8.33261ZM13.7636 8.34428C13.7639 8.34405 13.7626 8.34518 13.7605 8.34604C13.7589 8.34668 13.758 8.3467 13.7578 8.3467C13.7576 8.3467 13.7567 8.34668 13.7551 8.34604C13.753 8.34518 13.7517 8.34405 13.752 8.34428L14.8833 7.21291C14.2617 6.5913 13.2539 6.5913 12.6323 7.21291L13.7636 8.34428ZM13.752 8.34428C13.7522 8.34452 13.7511 8.34326 13.7502 8.34115C13.7496 8.33957 13.7496 8.33868 13.7496 8.33845C13.7496 8.33821 13.7496 8.33732 13.7502 8.33575C13.7511 8.33363 13.7522 8.33237 13.752 8.33261L14.8833 9.46398C15.505 8.84237 15.505 7.83453 14.8833 7.21291L13.752 8.34428Z" fill="#FF3F57" mask="url(#path-18-inside-2_1093_25427)"/>
<mask id="path-20-inside-3_1093_25427" fill="white">
<ellipse cx="8.91016" cy="4.97907" rx="0.791746" ry="0.791746" transform="rotate(45 8.91016 4.97907)"/>
</mask>
<path d="M8.90432 4.97324C8.90408 4.97347 8.90534 4.97234 8.90746 4.97148C8.90903 4.97084 8.90992 4.97082 8.91016 4.97082C8.91039 4.97082 8.91128 4.97084 8.91286 4.97148C8.91497 4.97234 8.91623 4.97347 8.91599 4.97324L7.78462 6.10461C8.40624 6.72622 9.41408 6.72622 10.0357 6.10461L8.90432 4.97324ZM8.91599 4.97324C8.91576 4.973 8.91689 4.97426 8.91775 4.97637C8.91839 4.97795 8.91841 4.97884 8.91841 4.97907C8.91841 4.97931 8.91839 4.9802 8.91775 4.98177C8.91689 4.98389 8.91576 4.98515 8.91599 4.98491L7.78462 3.85354C7.16301 4.47515 7.16301 5.48299 7.78462 6.10461L8.91599 4.97324ZM8.91599 4.98491C8.91623 4.98467 8.91497 4.98581 8.91286 4.98666C8.91128 4.9873 8.91039 4.98733 8.91016 4.98733C8.90992 4.98733 8.90903 4.9873 8.90746 4.98666C8.90534 4.98581 8.90408 4.98467 8.90432 4.98491L10.0357 3.85354C9.41408 3.23192 8.40624 3.23192 7.78462 3.85354L8.91599 4.98491ZM8.90432 4.98491C8.90456 4.98515 8.90342 4.98389 8.90257 4.98177C8.90193 4.9802 8.9019 4.97931 8.9019 4.97907C8.9019 4.97884 8.90193 4.97795 8.90257 4.97637C8.90342 4.97426 8.90456 4.973 8.90432 4.97324L10.0357 6.10461C10.6573 5.48299 10.6573 4.47515 10.0357 3.85354L8.90432 4.98491Z" fill="#FF3F57" mask="url(#path-20-inside-3_1093_25427)"/>
<mask id="path-22-inside-4_1093_25427" fill="white">
<ellipse cx="20.1055" cy="16.1763" rx="0.791746" ry="0.791746" transform="rotate(45 20.1055 16.1763)"/>
</mask>
<path d="M20.0996 16.1705C20.0994 16.1707 20.1007 16.1696 20.1028 16.1687C20.1043 16.1681 20.1052 16.1681 20.1055 16.1681C20.1057 16.1681 20.1066 16.1681 20.1082 16.1687C20.1103 16.1696 20.1115 16.1707 20.1113 16.1705L18.9799 17.3019C19.6015 17.9235 20.6094 17.9235 21.231 17.3019L20.0996 16.1705ZM20.1113 16.1705C20.1111 16.1703 20.1122 16.1715 20.1131 16.1736C20.1137 16.1752 20.1137 16.1761 20.1137 16.1763C20.1137 16.1766 20.1137 16.1775 20.1131 16.179C20.1122 16.1812 20.1111 16.1824 20.1113 16.1822L18.9799 15.0508C18.3583 15.6724 18.3583 16.6803 18.9799 17.3019L20.1113 16.1705ZM20.1113 16.1822C20.1115 16.1819 20.1103 16.1831 20.1082 16.1839C20.1066 16.1846 20.1057 16.1846 20.1055 16.1846C20.1052 16.1846 20.1043 16.1846 20.1028 16.1839C20.1007 16.1831 20.0994 16.1819 20.0996 16.1822L21.231 15.0508C20.6094 14.4292 19.6015 14.4292 18.9799 15.0508L20.1113 16.1822ZM20.0996 16.1822C20.0999 16.1824 20.0987 16.1812 20.0979 16.179C20.0972 16.1775 20.0972 16.1766 20.0972 16.1763C20.0972 16.1761 20.0972 16.1752 20.0979 16.1736C20.0987 16.1715 20.0999 16.1703 20.0996 16.1705L21.231 17.3019C21.8526 16.6803 21.8526 15.6724 21.231 15.0508L20.0996 16.1822Z" fill="#FF3F57" mask="url(#path-22-inside-4_1093_25427)"/>
<path d="M10.866 2.8296C10.6099 3.08565 10.1948 3.08565 9.93872 2.8296C9.68267 2.57355 9.68267 2.15841 9.93872 1.90235C10.1948 1.6463 10.6099 1.6463 10.866 1.90235C11.122 2.15841 11.122 2.57355 10.866 2.8296Z" stroke="#FF3F57" stroke-width="0.8"/>
<mask id="path-25-inside-5_1093_25427" fill="white">
<ellipse cx="14.5078" cy="1.6197" rx="0.791746" ry="0.791746" transform="rotate(45 14.5078 1.6197)"/>
</mask>
<path d="M14.502 1.61386C14.5017 1.6141 14.503 1.61296 14.5051 1.61211C14.5067 1.61147 14.5076 1.61144 14.5078 1.61144C14.508 1.61144 14.5089 1.61147 14.5105 1.61211C14.5126 1.61296 14.5139 1.6141 14.5136 1.61386L13.3823 2.74523C14.0039 3.36685 15.0117 3.36685 15.6333 2.74523L14.502 1.61386ZM14.5136 1.61386C14.5134 1.61362 14.5145 1.61489 14.5154 1.617C14.516 1.61857 14.5161 1.61946 14.5161 1.6197C14.5161 1.61993 14.516 1.62082 14.5154 1.6224C14.5145 1.62451 14.5134 1.62577 14.5136 1.62553L13.3823 0.494163C12.7607 1.11578 12.7607 2.12362 13.3823 2.74523L14.5136 1.61386ZM14.5136 1.62553C14.5139 1.6253 14.5126 1.62643 14.5105 1.62729C14.5089 1.62793 14.508 1.62795 14.5078 1.62795C14.5076 1.62795 14.5067 1.62793 14.5051 1.62729C14.503 1.62643 14.5017 1.6253 14.502 1.62553L15.6333 0.494163C15.0117 -0.127452 14.0039 -0.127452 13.3823 0.494163L14.5136 1.62553ZM14.502 1.62553C14.5022 1.62577 14.5011 1.62451 14.5002 1.6224C14.4996 1.62082 14.4996 1.61993 14.4996 1.6197C14.4996 1.61946 14.4996 1.61857 14.5002 1.617C14.5011 1.61488 14.5022 1.61362 14.502 1.61386L15.6333 2.74523C16.255 2.12362 16.255 1.11578 15.6333 0.494163L14.502 1.62553Z" fill="#FF3F57" mask="url(#path-25-inside-5_1093_25427)"/>
<mask id="path-27-inside-6_1093_25427" fill="white">
<ellipse cx="19.3594" cy="4.97907" rx="0.791746" ry="0.791746" transform="rotate(45 19.3594 4.97907)"/>
</mask>
<path d="M19.3535 4.97324C19.3533 4.97347 19.3546 4.97234 19.3567 4.97148C19.3583 4.97084 19.3591 4.97082 19.3594 4.97082C19.3596 4.97082 19.3605 4.97084 19.3621 4.97148C19.3642 4.97234 19.3654 4.97347 19.3652 4.97324L18.2338 6.10461C18.8555 6.72622 19.8633 6.72622 20.4849 6.10461L19.3535 4.97324ZM19.3652 4.97324C19.365 4.973 19.3661 4.97426 19.367 4.97637C19.3676 4.97795 19.3676 4.97884 19.3676 4.97907C19.3676 4.97931 19.3676 4.9802 19.367 4.98177C19.3661 4.98389 19.365 4.98515 19.3652 4.98491L18.2338 3.85354C17.6122 4.47515 17.6122 5.48299 18.2338 6.10461L19.3652 4.97324ZM19.3652 4.98491C19.3654 4.98467 19.3642 4.98581 19.3621 4.98666C19.3605 4.9873 19.3596 4.98733 19.3594 4.98733C19.3591 4.98733 19.3583 4.9873 19.3567 4.98666C19.3546 4.98581 19.3533 4.98467 19.3535 4.98491L20.4849 3.85354C19.8633 3.23192 18.8555 3.23192 18.2338 3.85354L19.3652 4.98491ZM19.3535 4.98491C19.3538 4.98515 19.3526 4.98389 19.3518 4.98177C19.3511 4.9802 19.3511 4.97931 19.3511 4.97907C19.3511 4.97884 19.3511 4.97795 19.3518 4.97637C19.3526 4.97426 19.3538 4.973 19.3535 4.97324L20.4849 6.10461C21.1065 5.48299 21.1065 4.47515 20.4849 3.85354L19.3535 4.98491Z" fill="#FF3F57" mask="url(#path-27-inside-6_1093_25427)"/>
<path d="M21.3191 8.80226C21.063 9.05831 20.6479 9.05831 20.3918 8.80226C20.1358 8.5462 20.1358 8.13106 20.3918 7.87501C20.6479 7.61896 21.063 7.61896 21.3191 7.87501C21.5751 8.13106 21.5751 8.5462 21.3191 8.80226Z" stroke="#FF3F57" stroke-width="0.8"/>
<path d="M14.6003 5.06983C14.3443 5.32589 13.9291 5.32589 13.6731 5.06983C13.417 4.81378 13.417 4.39864 13.6731 4.14259C13.9291 3.88654 14.3443 3.88654 14.6003 4.14259C14.8564 4.39864 14.8564 4.81378 14.6003 5.06983Z" stroke="#FF3F57" stroke-width="0.8"/>
</g>
<defs>
<clipPath id="clip0_1093_25427">
<rect width="24" height="24" fill="white" transform="translate(0.644531)"/>
</clipPath>
</defs>
</svg>
