<svg width="25" height="24" viewBox="0 0 25 24" fill="none" xmlns="http://www.w3.org/2000/svg">
<path d="M4.64252 11.7738C4.1646 11.0869 3.97274 10.4394 4.44039 10.0471C4.83609 9.71479 5.4185 9.65141 6.13796 10.4822C6.13796 10.4822 8.28775 12.9797 9.02776 13.6735C9.19563 13.8294 9.40462 13.8534 9.59476 13.6564C9.75578 13.4885 9.69754 13.3429 9.5605 13.1425C9.5605 13.1425 6.53023 8.63732 6.13282 8.08746C5.46989 7.16758 5.72513 6.57318 6.03175 6.29054C6.45828 5.89484 7.20857 5.81604 7.90576 6.77188L11.575 11.683C11.6863 11.8012 11.8662 11.8183 11.9981 11.7258L12.0495 11.6899C12.1848 11.5939 12.2242 11.4106 12.142 11.2668C11.4996 10.1482 8.94382 5.69099 8.56868 4.87904C8.13701 3.94204 8.32201 3.46583 8.77938 3.19004C9.32239 2.86286 9.83286 2.88684 10.4427 3.79301C11.1039 4.77968 13.6717 8.93367 14.3243 10.0505C14.41 10.1961 14.5932 10.251 14.744 10.1773C14.7457 10.1756 14.7491 10.1756 14.7508 10.1739C14.8947 10.1036 15.0249 9.96146 14.965 9.75933C14.6087 8.58422 12.8597 4.92529 12.4931 4.08421C11.9912 2.9348 12.2362 2.54424 12.7552 2.28044C13.2999 2.00465 13.8669 2.2222 14.2524 2.98962C14.5127 3.51036 19.0847 11.8303 19.0847 11.8303C19.0179 10.5901 19.3314 9.71136 19.5986 8.82918C20.0851 7.22411 21.2619 6.38989 22.115 6.76503C22.5586 6.96031 22.6391 7.34916 22.5912 7.64722C22.4952 8.22621 22.0875 10.0197 22.0088 11.4243C21.8237 14.7167 22.819 18.511 19.1104 20.8954C16.6283 22.4919 13.968 22.211 12.2105 20.9828C10.0795 19.4942 5.03308 12.3357 4.64252 11.7738Z" stroke="#FF3F57" stroke-width="0.8"/>
<path d="M19.3604 6.34072C19.1223 5.49622 18.7523 4.72195 18.2726 4.05046C17.841 3.44578 17.3185 2.92503 16.7224 2.50706C16.647 2.45396 16.5511 2.28952 16.6333 2.13021C16.7155 1.9709 16.8937 1.99146 16.9605 2.01886C17.7056 2.32549 18.3155 2.8548 18.8191 3.58111C19.4169 4.44445 19.7132 5.25812 19.8657 6.16771C19.8828 6.26706 19.8794 6.47605 19.667 6.53086C19.4563 6.58568 19.3844 6.42295 19.3604 6.34072ZM18.1955 7.24689C17.9574 6.40239 17.5874 5.62812 17.1078 4.95663C16.6761 4.35195 16.1537 3.8312 15.5575 3.41323C15.4822 3.36013 15.3863 3.19568 15.4685 3.03638C15.5507 2.87536 15.7288 2.89763 15.7957 2.92503C16.5408 3.23166 17.1506 3.76097 17.6542 4.48727C18.2521 5.35062 18.5484 6.16429 18.7009 7.07388C18.718 7.17323 18.7146 7.38222 18.5022 7.43703C18.2932 7.49185 18.2195 7.33083 18.1955 7.24689ZM3.09902 14.3061C3.39365 15.1335 3.81333 15.8803 4.33579 16.5193C4.80686 17.0931 5.36187 17.5796 5.98368 17.9582C6.06248 18.0061 6.16869 18.1637 6.09674 18.3282C6.02479 18.4943 5.84664 18.4841 5.77641 18.4618C5.01242 18.2049 4.36834 17.7167 3.81847 17.0246C3.16582 16.2024 2.81466 15.411 2.60225 14.5134C2.57827 14.414 2.56799 14.2067 2.77698 14.1382C2.98596 14.0697 3.0699 14.2256 3.09902 14.3061ZM4.20047 13.3246C4.4951 14.1519 4.91478 14.8988 5.43724 15.5377C5.90831 16.1116 6.46332 16.5981 7.08513 16.9766C7.16393 17.0246 7.27013 17.1822 7.19819 17.3466C7.12624 17.5128 6.94809 17.5025 6.87786 17.4803C6.11387 17.2233 5.46979 16.7351 4.91992 16.0431C4.26727 15.2208 3.91611 14.4294 3.7037 13.5318C3.67972 13.4325 3.66944 13.2252 3.87843 13.1567C4.08741 13.0865 4.17135 13.244 4.20047 13.3246Z" fill="#FF3F57"/>
</svg>
