<svg width="25" height="24" viewBox="0 0 25 24" fill="none" xmlns="http://www.w3.org/2000/svg">
<path d="M10.7725 7.03289C10.6037 6.86395 10.4032 6.72993 10.1825 6.6385C9.96183 6.54706 9.72531 6.5 9.48644 6.5C9.24757 6.5 9.01105 6.54706 8.79038 6.6385C8.5697 6.72993 8.36921 6.86395 8.20034 7.03289L7.84989 7.38335L7.49944 7.03289C7.15835 6.6918 6.69572 6.50018 6.21334 6.50018C5.73097 6.50018 5.26834 6.6918 4.92725 7.03289C4.58616 7.37399 4.39453 7.83661 4.39453 8.31899C4.39453 8.80137 4.58616 9.26399 4.92725 9.60508L5.2777 9.95554L7.84989 12.5277L10.4221 9.95554L10.7725 9.60508C10.9415 9.43622 11.0755 9.23573 11.1669 9.01505C11.2584 8.79438 11.3054 8.55786 11.3054 8.31899C11.3054 8.08012 11.2584 7.8436 11.1669 7.62293C11.0755 7.40225 10.9415 7.20176 10.7725 7.03289Z" stroke="#FF3F57" stroke-linecap="round" stroke-linejoin="round"/>
<path d="M19.3858 7.03289C19.217 6.86395 19.0165 6.72993 18.7958 6.6385C18.5751 6.54706 18.3386 6.5 18.0997 6.5C17.8609 6.5 17.6243 6.54706 17.4037 6.6385C17.183 6.72993 16.9825 6.86395 16.8136 7.03289L16.4632 7.38335L16.1127 7.03289C15.7716 6.6918 15.309 6.50018 14.8266 6.50018C14.3442 6.50018 13.8816 6.6918 13.5405 7.03289C13.1994 7.37399 13.0078 7.83661 13.0078 8.31899C13.0078 8.80137 13.1994 9.26399 13.5405 9.60508L13.891 9.95554L16.4632 12.5277L19.0354 9.95554L19.3858 9.60508C19.5548 9.43622 19.6888 9.23573 19.7802 9.01505C19.8716 8.79438 19.9187 8.55786 19.9187 8.31899C19.9187 8.08012 19.8716 7.8436 19.7802 7.62293C19.6888 7.40225 19.5548 7.20176 19.3858 7.03289Z" stroke="#FF3F57" stroke-linecap="round" stroke-linejoin="round"/>
<path d="M12.1449 17.85C14.0375 17.85 15.5142 16.7246 16.506 15.6175C16.6748 15.4291 16.65 15.2591 16.5625 15.139C16.4639 15.0036 16.2511 14.8935 15.9699 14.96C14.7821 15.2412 13.3185 15.5187 12.1449 15.5187C10.9713 15.5187 9.50769 15.2412 8.31989 14.96C8.03872 14.8935 7.82598 15.0036 7.7273 15.139C7.63986 15.2591 7.61508 15.4291 7.78384 15.6175C8.77564 16.7246 10.2523 17.85 12.1449 17.85Z" stroke="#FF3F57" stroke-width="0.8"/>
<path d="M12.1445 1.83996C6.80909 1.83996 2.4845 6.16456 2.4845 11.5C2.4845 16.8354 6.80909 21.16 12.1445 21.16C17.48 21.16 21.8046 16.8354 21.8046 11.5C21.7937 6.16908 17.4755 1.85081 12.1454 1.83996H12.1445ZM12.1445 22C6.34525 22 1.64453 17.2993 1.64453 11.5C1.64453 5.70072 6.34525 1 12.1445 1C17.9438 1 22.6445 5.70072 22.6445 11.5V11.5136C22.6445 17.3047 17.9501 21.9991 12.159 21.9991H12.1445H12.1454L12.1445 22Z" fill="#FF3F57"/>
</svg>
