<svg width="25" height="24" viewBox="0 0 25 24" fill="none" xmlns="http://www.w3.org/2000/svg">
<path d="M13.9159 5.21059L13.8063 4.82587C13.6069 4.88263 13.484 5.08235 13.523 5.28597L13.9159 5.21059ZM17.9971 4.04883L18.3746 3.91631C18.3045 3.71671 18.0911 3.6062 17.8876 3.66411L17.9971 4.04883ZM19.2753 16.5457L19.1658 16.1609L19.2753 16.5457ZM18.9925 23.0476C18.7801 23.1081 18.6569 23.3293 18.7173 23.5418C18.7778 23.7543 18.9991 23.8775 19.2116 23.817L18.9925 23.0476ZM22.9923 22.7408C23.2048 22.6803 23.328 22.459 23.2675 22.2466C23.2071 22.0341 22.9858 21.9109 22.7733 21.9714L22.9923 22.7408ZM17.7674 11.0409L17.6207 10.6688L17.7674 11.0409ZM9.75956 1.59377L9.92226 1.22835C9.73224 1.14375 9.50909 1.2189 9.40896 1.40122L9.75956 1.59377ZM13.6361 3.31972L14.0103 3.46121C14.0852 3.2629 13.9925 3.04053 13.7988 2.9543L13.6361 3.31972ZM6.33576 14.3273L6.49846 13.9618L6.49846 13.9618L6.33576 14.3273ZM3.5192 20.6534L3.3565 21.0188L3.3565 21.0188L3.5192 20.6534ZM1.80723 19.4533C1.60541 19.3634 1.36897 19.4542 1.27911 19.656C1.18926 19.8578 1.28002 20.0943 1.48184 20.1841L1.80723 19.4533ZM5.07295 21.783C5.27476 21.8729 5.5112 21.7821 5.60106 21.5803C5.69091 21.3785 5.60015 21.142 5.39833 21.0522L5.07295 21.783ZM8.40501 9.77416L8.23823 10.1377L8.23823 10.1377L8.40501 9.77416ZM14.9667 2.66192C14.7998 2.80662 14.7817 3.05925 14.9264 3.22617C15.0711 3.3931 15.3238 3.41112 15.4907 3.26642L14.9667 2.66192ZM17.197 1.78733C17.3639 1.64263 17.3819 1.39001 17.2372 1.22308C17.0925 1.05615 16.8399 1.03813 16.673 1.18283L17.197 1.78733ZM13.731 1.95701C13.7982 2.16744 14.0233 2.28353 14.2337 2.21629C14.4442 2.14906 14.5602 1.92396 14.493 1.71353L13.731 1.95701ZM14.0664 0.378261C13.9992 0.167827 13.7741 0.051741 13.5636 0.118976C13.3532 0.18621 13.2371 0.411305 13.3043 0.621739L14.0664 0.378261ZM14.0254 5.59531L18.1067 4.43355L17.8876 3.66411L13.8063 4.82587L14.0254 5.59531ZM17.6197 4.18135C18.4756 6.61884 19.3879 9.54497 19.7883 11.9376C19.9892 13.1383 20.0551 14.1709 19.9379 14.9294C19.8193 15.6968 19.5404 16.0543 19.1658 16.1609L19.3848 16.9304C20.2148 16.6941 20.5929 15.9286 20.7285 15.0516C20.8654 14.1658 20.7827 13.0328 20.5773 11.8055C20.1651 9.34221 19.2336 6.36282 18.3746 3.91631L17.6197 4.18135ZM19.1658 16.1609C18.7913 16.2675 18.366 16.1105 17.8634 15.5208C17.3666 14.9377 16.8828 14.0247 16.4299 12.8965C15.5274 10.6487 14.7955 7.67251 14.3087 5.13521L13.523 5.28597C14.0136 7.84262 14.7569 10.8768 15.6875 13.1946C16.151 14.3492 16.6733 15.3576 17.2545 16.0396C17.83 16.715 18.5547 17.1667 19.3848 16.9304L19.1658 16.1609ZM18.8906 16.6552L20.691 22.98L21.4604 22.761L19.66 16.4361L18.8906 16.6552ZM21.1852 23.2552L22.9923 22.7408L22.7733 21.9714L20.9662 22.4858L21.1852 23.2552ZM20.2396 10.7354C20.0599 10.559 19.8274 10.4688 19.6083 10.4233C19.3861 10.377 19.1459 10.3699 18.9145 10.3843C18.4533 10.413 17.9696 10.5313 17.6207 10.6688L17.914 11.4131C18.1892 11.3047 18.5908 11.206 18.9642 11.1828C19.1502 11.1712 19.3145 11.1793 19.4454 11.2065C19.5792 11.2343 19.6481 11.2758 19.6791 11.3063L20.2396 10.7354ZM17.6207 10.6688C16.9754 10.923 16.5672 11.0076 16.3052 11.0014C16.0765 10.996 15.9742 10.924 15.8932 10.8181L15.2577 11.304C15.4937 11.6127 15.8281 11.7904 16.2864 11.8012C16.7116 11.8112 17.2408 11.6783 17.914 11.4131L17.6207 10.6688ZM9.59687 1.95919L13.4734 3.68514L13.7988 2.9543L9.92226 1.22835L9.59687 1.95919ZM13.262 3.17823C12.2997 5.72275 11.056 8.70413 9.77501 10.9167C9.13224 12.0269 8.49635 12.9145 7.9009 13.4587C7.29333 14.0141 6.84399 14.1157 6.49846 13.9618L6.17307 14.6927C6.97172 15.0483 7.76606 14.6658 8.44063 14.0493C9.12731 13.4216 9.81204 12.4494 10.4673 11.3176C11.7825 9.04604 13.0448 6.01422 14.0103 3.46121L13.262 3.17823ZM6.49846 13.9618C6.15304 13.8081 5.92777 13.4062 5.93571 12.5847C5.94349 11.7794 6.18111 10.7151 6.58367 9.49874C7.38588 7.07492 8.80054 4.17093 10.1102 1.78632L9.40896 1.40122C8.09031 3.80225 6.64889 6.75558 5.82418 9.24738C5.41328 10.4889 5.14473 11.6469 5.13575 12.5769C5.12692 13.4907 5.37431 14.337 6.17307 14.6927L6.49846 13.9618ZM5.97035 14.1646L3.15378 20.4907L3.88462 20.8161L6.70118 14.49L5.97035 14.1646ZM3.3565 21.0188L5.07295 21.783L5.39833 21.0522L3.68189 20.288L3.3565 21.0188ZM6.48165 9.93447C6.51429 9.90576 6.58531 9.86812 6.72048 9.84764C6.85259 9.82762 7.01717 9.82855 7.20218 9.85029C7.57375 9.89395 7.96941 10.0144 8.23823 10.1377L8.57178 9.41059C8.23093 9.25423 7.75449 9.10968 7.29554 9.05575C7.06529 9.0287 6.825 9.02267 6.60064 9.05667C6.37935 9.09019 6.1423 9.16751 5.95326 9.3338L6.48165 9.93447ZM8.23823 10.1377C8.89589 10.4394 9.41706 10.601 9.84213 10.6143C10.3004 10.6286 10.644 10.4695 10.8966 10.1741L10.2885 9.65423C10.2019 9.75555 10.0958 9.82184 9.86711 9.81469C9.60522 9.80651 9.20221 9.69977 8.57178 9.41059L8.23823 10.1377ZM15.4907 3.26642L17.197 1.78733L16.673 1.18283L14.9667 2.66192L15.4907 3.26642ZM14.493 1.71353L14.0664 0.378261L13.3043 0.621739L13.731 1.95701L14.493 1.71353ZM20.9662 22.4858L18.9925 23.0476L19.2116 23.817L21.1852 23.2552L20.9662 22.4858ZM3.68189 20.288L1.80723 19.4533L1.48184 20.1841L3.3565 21.0188L3.68189 20.288Z" fill="#FF3F57"/>
</svg>
