<svg width="24" height="24" viewBox="0 0 24 24" fill="none" xmlns="http://www.w3.org/2000/svg">
<path d="M3 2.75H9C9.13807 2.75 9.25 2.86193 9.25 3V9C9.25 9.13807 9.13807 9.25 9 9.25H3C2.86193 9.25 2.75 9.13807 2.75 9V3C2.75 2.86193 2.86193 2.75 3 2.75Z" fill="#B1B1B1" stroke="#B1B1B1" stroke-width="1.5" stroke-linecap="round" stroke-linejoin="round"/>
<path d="M14 2.75H20C20.1381 2.75 20.25 2.86193 20.25 3V9C20.25 9.13807 20.1381 9.25 20 9.25H14C13.8619 9.25 13.75 9.13807 13.75 9V3C13.75 2.86193 13.8619 2.75 14 2.75Z" fill="#B1B1B1" stroke="#B1B1B1" stroke-width="1.5" stroke-linecap="round" stroke-linejoin="round"/>
<path d="M3 13.75H9C9.13807 13.75 9.25 13.8619 9.25 14V20C9.25 20.1381 9.13807 20.25 9 20.25H3C2.86193 20.25 2.75 20.1381 2.75 20V14C2.75 13.8619 2.86193 13.75 3 13.75Z" fill="#B1B1B1" stroke="#B1B1B1" stroke-width="1.5" stroke-linecap="round" stroke-linejoin="round"/>
<path d="M16.4444 20.8889C18.899 20.8889 20.8889 18.899 20.8889 16.4444C20.8889 13.9898 18.899 12 16.4444 12C13.9898 12 12 13.9898 12 16.4444C12 18.899 13.9898 20.8889 16.4444 20.8889Z" stroke="#B1B1B1" stroke-width="1.5" stroke-linecap="round" stroke-linejoin="round"/>
<path d="M22.0026 21.9997L19.5859 19.583" stroke="#B1B1B1" stroke-width="1.5" stroke-linecap="round" stroke-linejoin="round"/>
</svg>
