<svg width="24" height="24" viewBox="0 0 24 24" fill="none" xmlns="http://www.w3.org/2000/svg">
<path fill-rule="evenodd" clip-rule="evenodd" d="M2 3C2 2.44772 2.44772 2 3 2H9C9.55229 2 10 2.44772 10 3V9C10 9.55229 9.55229 10 9 10H3C2.44772 10 2 9.55229 2 9V3ZM21 3C21 2.44772 20.5523 2 20 2H14C13.4477 2 13 2.44772 13 3V9C13 9.55229 13.4477 10 14 10H20C20.5523 10 21 9.55229 21 9V3ZM10 14C10 13.4477 9.55229 13 9 13H3C2.44772 13 2 13.4477 2 14V20C2 20.5523 2.44772 21 3 21H9C9.55229 21 10 20.5523 10 20V14ZM16.4444 12.75C14.4041 12.75 12.75 14.4041 12.75 16.4444C12.75 18.4848 14.4041 20.1389 16.4444 20.1389C17.4405 20.1389 18.3445 19.7447 19.0089 19.1038C19.0236 19.0862 19.0391 19.0692 19.0556 19.0527C19.0719 19.0364 19.0888 19.021 19.1062 19.0065C19.7457 18.3422 20.1389 17.4393 20.1389 16.4444C20.1389 14.4041 18.4848 12.75 16.4444 12.75ZM20.6108 19.5472C21.2566 18.6814 21.6389 17.6076 21.6389 16.4444C21.6389 13.5756 19.3132 11.25 16.4444 11.25C13.5756 11.25 11.25 13.5756 11.25 16.4444C11.25 19.3132 13.5756 21.6389 16.4444 21.6389C17.6091 21.6389 18.6842 21.2556 19.5505 20.6083L21.4723 22.53C21.7652 22.8229 22.24 22.8229 22.5329 22.53C22.8258 22.2371 22.8258 21.7622 22.5329 21.4693L20.6108 19.5472Z" fill="url(#paint0_linear_1283_13351)"/>
<defs>
<linearGradient id="paint0_linear_1283_13351" x1="2" y1="12.4651" x2="22.7526" y2="12.4651" gradientUnits="userSpaceOnUse">
<stop stop-color="#E7497D"/>
<stop offset="0.515625" stop-color="#FE5F5E"/>
<stop offset="1" stop-color="#FF8841"/>
</linearGradient>
</defs>
</svg>
