<svg width="24" height="24" viewBox="0 0 24 24" fill="none" xmlns="http://www.w3.org/2000/svg">
<g clip-path="url(#clip0_1283_13347)">
<path d="M11.6798 0.284474C11.7248 -0.0948246 12.2752 -0.0948246 12.3202 0.284474L12.6978 3.46644C13.1853 7.57523 16.4248 10.8147 20.5335 11.3022L23.7155 11.6798C24.0948 11.7248 24.0948 12.2752 23.7155 12.3202L20.5335 12.6978C16.4248 13.1853 13.1853 16.4248 12.6978 20.5335L12.3202 23.7155C12.2752 24.0948 11.7248 24.0948 11.6798 23.7155L11.3022 20.5335C10.8147 16.4248 7.57523 13.1853 3.46644 12.6978L0.284474 12.3202C-0.0948246 12.2752 -0.0948246 11.7248 0.284474 11.6798L3.46644 11.3022C7.57523 10.8147 10.8147 7.57523 11.3022 3.46644L11.6798 0.284474Z" fill="url(#paint0_linear_1283_13347)"/>
</g>
<defs>
<linearGradient id="paint0_linear_1283_13347" x1="7.50038e-08" y1="12.1044" x2="24" y2="12.1044" gradientUnits="userSpaceOnUse">
<stop stop-color="#E7497D"/>
<stop offset="0.515625" stop-color="#FE5F5E"/>
<stop offset="1" stop-color="#FF8841"/>
</linearGradient>
<clipPath id="clip0_1283_13347">
<rect width="24" height="24" fill="white"/>
</clipPath>
</defs>
</svg>
