<svg width="70" height="34" viewBox="0 0 70 34" fill="none" xmlns="http://www.w3.org/2000/svg">
<path d="M34.8673 17.7371H32.8008V4.1123H34.8673V17.7371Z" fill="white"/>
<path d="M29.8509 8.04395V17.7372H28.231L27.9508 16.4325H27.8369C27.6326 16.7652 27.3729 17.0425 27.0576 17.2643C26.7424 17.4803 26.3922 17.6408 26.0069 17.7459C25.6216 17.8568 25.2159 17.9123 24.7898 17.9123C24.0601 17.9123 23.4355 17.7897 22.9159 17.5445C22.4022 17.2935 22.0082 16.9082 21.7338 16.3887C21.4594 15.8691 21.3223 15.1978 21.3223 14.3747V8.04395H23.3887V13.9895C23.3887 14.7425 23.5405 15.3058 23.8441 15.6794C24.1535 16.053 24.6321 16.2398 25.2801 16.2398C25.9047 16.2398 26.4009 16.1114 26.7687 15.8546C27.1364 15.5977 27.3962 15.2183 27.548 14.7162C27.7056 14.2142 27.7844 13.5984 27.7844 12.8687V8.04395H29.8509Z" fill="white"/>
<path d="M19.037 12.8689C19.037 13.6745 18.932 14.3896 18.7218 15.0142C18.5117 15.6389 18.2052 16.1672 17.8024 16.5991C17.3996 17.0253 16.9151 17.3522 16.3489 17.5798C15.7826 17.8017 15.1434 17.9126 14.4312 17.9126C13.7658 17.9126 13.1557 17.8017 12.6012 17.5798C12.0466 17.3522 11.565 17.0253 11.1564 16.5991C10.7536 16.1672 10.4413 15.6389 10.2195 15.0142C9.99763 14.3896 9.88672 13.6745 9.88672 12.8689C9.88672 11.8007 10.0706 10.8959 10.4384 10.1545C10.812 9.4073 11.3432 8.83814 12.032 8.44702C12.7208 8.05591 13.541 7.86035 14.4925 7.86035C15.3857 7.86035 16.1737 8.05591 16.8567 8.44702C17.5397 8.83814 18.0738 9.4073 18.4591 10.1545C18.8444 10.9017 19.037 11.8065 19.037 12.8689ZM12.0057 12.8689C12.0057 13.5753 12.0904 14.1795 12.2597 14.6815C12.4348 15.1835 12.7033 15.5688 13.0653 15.8373C13.4272 16.1 13.8942 16.2314 14.4663 16.2314C15.0383 16.2314 15.5053 16.1 15.8673 15.8373C16.2292 15.5688 16.4948 15.1835 16.6641 14.6815C16.8334 14.1795 16.918 13.5753 16.918 12.8689C16.918 12.1626 16.8334 11.5643 16.6641 11.0739C16.4948 10.5777 16.2292 10.2012 15.8673 9.94435C15.5053 9.68166 15.0354 9.55032 14.4575 9.55032C13.6052 9.55032 12.9835 9.83635 12.5924 10.4084C12.2013 10.9805 12.0057 11.8007 12.0057 12.8689Z" fill="white"/>
<path d="M8.19589 14.2525C8.19589 15.0114 8.00908 15.6652 7.63548 16.2139C7.26772 16.7627 6.7365 17.183 6.04184 17.4748C5.35301 17.7667 4.52992 17.9127 3.57257 17.9127C3.10556 17.9127 2.65899 17.8864 2.23285 17.8338C1.80671 17.7813 1.40392 17.7054 1.02449 17.6062C0.650884 17.5011 0.309389 17.3756 0 17.2297V15.2507C0.51954 15.4784 1.10037 15.6856 1.7425 15.8724C2.38463 16.0534 3.03843 16.1439 3.70391 16.1439C4.2468 16.1439 4.69629 16.0738 5.05238 15.9337C5.4143 15.7878 5.68283 15.5835 5.85796 15.3208C6.03308 15.0523 6.12065 14.74 6.12065 14.3839C6.12065 14.0044 6.01849 13.6834 5.81418 13.4207C5.60986 13.158 5.30047 12.9187 4.88601 12.7027C4.47738 12.4808 3.96368 12.2444 3.3449 11.9934C2.9246 11.8241 2.52181 11.6315 2.13653 11.4155C1.7571 11.1995 1.41852 10.9456 1.1208 10.6537C0.823091 10.3618 0.586671 10.0174 0.411546 9.62045C0.242257 9.21766 0.157613 8.74482 0.157613 8.20193C0.157613 7.47808 0.32982 6.8593 0.674234 6.3456C1.02449 5.8319 1.51484 5.43786 2.14529 5.1635C2.78158 4.88913 3.52295 4.75195 4.36939 4.75195C5.0407 4.75195 5.67116 4.822 6.26075 4.9621C6.85617 5.1022 7.43993 5.30068 8.012 5.55753L7.34653 7.2475C6.82115 7.03151 6.31036 6.8593 5.81418 6.73087C5.32382 6.60245 4.8218 6.53824 4.30809 6.53824C3.86444 6.53824 3.48792 6.60537 3.17853 6.73963C2.86914 6.87389 2.63272 7.06361 2.46927 7.30879C2.31166 7.54813 2.23285 7.83417 2.23285 8.16691C2.23285 8.54051 2.32333 8.85573 2.5043 9.11259C2.6911 9.3636 2.97714 9.59418 3.36241 9.80433C3.75353 10.0145 4.25556 10.248 4.8685 10.5048C5.57484 10.7967 6.17318 11.1032 6.66354 11.4242C7.15972 11.7453 7.53916 12.1306 7.80185 12.5801C8.06454 13.0237 8.19589 13.5812 8.19589 14.2525Z" fill="white"/>
<path d="M65.4277 6.08515L60.7848 6.65956L60.7848 5.51074L65.4277 6.08515Z" fill="#656565"/>
<line x1="46.7227" y1="24.4355" x2="46.7227" y2="33.2792" stroke="#656565" stroke-width="1.5"/>
<line x1="48.0488" y1="24.4355" x2="48.0488" y2="33.2792" stroke="#656565" stroke-width="1.5"/>
<path d="M46.2039 24.9298C36.6959 24.9298 31.5034 18.4831 29.6113 14.5385C38.8971 14.5385 40.7428 16.0254 46.6461 6.97607C52.5494 -2.07331 59.6418 0.16767 61.6694 6.97606C63.697 13.7845 57.1023 24.9298 46.2039 24.9298Z" fill="url(#paint0_radial_1096_8998)" stroke="url(#paint1_linear_1096_8998)"/>
<path d="M48.3394 20.4555C44.4493 20.4555 42.3249 17.8348 41.5508 16.2312C45.3499 16.2312 45.9241 16.8357 48.3394 13.1569C50.7546 9.47817 53.8373 10.3892 54.6669 13.1569C55.4964 15.9247 52.7983 20.4555 48.3394 20.4555Z" fill="url(#paint2_radial_1096_8998)"/>
<circle opacity="0.5" cx="57.4683" cy="5.86385" r="0.884361" fill="#4E0C22"/>
<line x1="44.2051" y1="32.5293" x2="53.4909" y2="32.5293" stroke="#656565" stroke-width="1.5"/>
<path d="M24.5459 32.8496L20.8457 22.1182H20.7666C20.7842 22.3584 20.8047 22.6865 20.8281 23.1025C20.8516 23.5186 20.8721 23.9639 20.8896 24.4385C20.9072 24.9131 20.916 25.3672 20.916 25.8008V32.8496H19V20H21.9619L25.5215 30.2568H25.5742L29.2568 20H32.21V32.8496H30.1973V25.6953C30.1973 25.3027 30.2031 24.8779 30.2148 24.4209C30.2324 23.9639 30.25 23.5303 30.2676 23.1201C30.291 22.71 30.3086 22.3818 30.3203 22.1357H30.25L26.4092 32.8496H24.5459Z" fill="white"/>
<path d="M39.1973 22.9355C40.4277 22.9355 41.3564 23.208 41.9834 23.7529C42.6162 24.2979 42.9326 25.1475 42.9326 26.3018V32.8496H41.4648L41.0693 31.4697H40.999C40.7236 31.8213 40.4395 32.1113 40.1465 32.3398C39.8535 32.5684 39.5137 32.7383 39.127 32.8496C38.7461 32.9668 38.2803 33.0254 37.7295 33.0254C37.1494 33.0254 36.6309 32.9199 36.1738 32.709C35.7168 32.4922 35.3564 32.1641 35.0928 31.7246C34.8291 31.2852 34.6973 30.7285 34.6973 30.0547C34.6973 29.0527 35.0693 28.2998 35.8135 27.7959C36.5635 27.292 37.6943 27.0137 39.2061 26.9609L40.8936 26.8994V26.3896C40.8936 25.7158 40.7354 25.2354 40.4189 24.9482C40.1084 24.6611 39.6689 24.5176 39.1006 24.5176C38.6143 24.5176 38.1426 24.5879 37.6855 24.7285C37.2285 24.8691 36.7832 25.042 36.3496 25.2471L35.6816 23.7881C36.1562 23.5361 36.6953 23.3311 37.2988 23.1729C37.9082 23.0146 38.541 22.9355 39.1973 22.9355ZM40.8848 28.2002L39.6279 28.2441C38.5967 28.2793 37.873 28.4551 37.457 28.7715C37.041 29.0879 36.833 29.5215 36.833 30.0723C36.833 30.5527 36.9766 30.9043 37.2637 31.127C37.5508 31.3438 37.9287 31.4521 38.3975 31.4521C39.1123 31.4521 39.7041 31.25 40.1729 30.8457C40.6475 30.4355 40.8848 29.835 40.8848 29.0439V28.2002Z" fill="white"/>
<path d="M49.4453 31.3555C49.7148 31.3555 49.9814 31.332 50.2451 31.2852C50.5088 31.2324 50.749 31.1709 50.9658 31.1006V32.665C50.7373 32.7646 50.4414 32.8496 50.0781 32.9199C49.7148 32.9902 49.3369 33.0254 48.9443 33.0254C48.3936 33.0254 47.8984 32.9346 47.459 32.7529C47.0195 32.5654 46.6709 32.2461 46.4131 31.7949C46.1553 31.3438 46.0264 30.7197 46.0264 29.9229V24.6934H44.6992V23.7705L46.123 23.041L46.7998 20.958H48.1006V23.1201H50.8867V24.6934H48.1006V29.8965C48.1006 30.3887 48.2236 30.7549 48.4697 30.9951C48.7158 31.2354 49.041 31.3555 49.4453 31.3555Z" fill="white"/>
<path d="M56.8193 22.9355C57.6865 22.9355 58.4307 23.1143 59.0518 23.4717C59.6729 23.8291 60.1504 24.3359 60.4844 24.9922C60.8184 25.6484 60.9854 26.4336 60.9854 27.3477V28.4551H54.4902C54.5137 29.3984 54.7656 30.125 55.2461 30.6348C55.7324 31.1445 56.4121 31.3994 57.2852 31.3994C57.9062 31.3994 58.4629 31.3408 58.9551 31.2236C59.4531 31.1006 59.9658 30.9219 60.4932 30.6875V32.3662C60.0068 32.5947 59.5117 32.7617 59.0078 32.8672C58.5039 32.9727 57.9004 33.0254 57.1973 33.0254C56.2422 33.0254 55.4014 32.8408 54.6748 32.4717C53.9541 32.0967 53.3887 31.54 52.9785 30.8018C52.5742 30.0635 52.3721 29.1465 52.3721 28.0508C52.3721 26.9609 52.5566 26.0352 52.9258 25.2734C53.2949 24.5117 53.8135 23.9316 54.4814 23.5332C55.1494 23.1348 55.9287 22.9355 56.8193 22.9355ZM56.8193 24.4912C56.1689 24.4912 55.6416 24.7021 55.2373 25.124C54.8389 25.5459 54.6045 26.1641 54.5342 26.9785H58.9639C58.958 26.4922 58.876 26.0615 58.7178 25.6865C58.5654 25.3115 58.3311 25.0186 58.0146 24.8076C57.7041 24.5967 57.3057 24.4912 56.8193 24.4912Z" fill="white"/>
<path d="M69.8271 32.8496H62.4355V31.5752L67.3486 24.7109H62.7344V23.1201H69.6865V24.5264L64.8701 31.2588H69.8271V32.8496Z" fill="white"/>
<defs>
<radialGradient id="paint0_radial_1096_8998" cx="0" cy="0" r="1" gradientUnits="userSpaceOnUse" gradientTransform="translate(53.0469 22.6668) rotate(-118.867) scale(19.6919 784.677)">
<stop stop-color="#BA1A4F"/>
<stop offset="0.306442" stop-color="#D92222"/>
<stop offset="0.637968" stop-color="#FF4443"/>
<stop offset="1" stop-color="#E12A29"/>
</radialGradient>
<linearGradient id="paint1_linear_1096_8998" x1="38.8971" y1="4.09525" x2="53.268" y2="27.973" gradientUnits="userSpaceOnUse">
<stop stop-color="#FF4443"/>
<stop offset="0.560858" stop-color="#DE2800"/>
<stop offset="0.954798" stop-color="#BA1A4F"/>
</linearGradient>
<radialGradient id="paint2_radial_1096_8998" cx="0" cy="0" r="1" gradientUnits="userSpaceOnUse" gradientTransform="translate(49.9522 19.3501) rotate(-111.604) scale(7.34062 293.731)">
<stop offset="0.171875" stop-color="#BA1A4F"/>
<stop offset="0.416667" stop-color="#E12A29"/>
<stop offset="0.932292" stop-color="#FF6C6C"/>
</radialGradient>
</defs>
</svg>
